<svg xmlns="http://www.w3.org/2000/svg" viewBox="0 0 44 42" width="88" height="84" shape-rendering="crispEdges"><rect x="1" y="1" width="42" height="1" fill="#1b130c" opacity="0.55"/><rect x="1" y="2" width="1" height="1" fill="#1b130c" opacity="0.55"/><rect x="2" y="2" width="2" height="1" fill="#c8a35e"/><rect x="4" y="2" width="36" height="1" fill="#6b4a2e"/><rect x="40" y="2" width="2" height="1" fill="#c8a35e"/><rect x="42" y="2" width="1" height="1" fill="#1b130c" opacity="0.55"/><rect x="1" y="3" width="1" height="1" fill="#1b130c" opacity="0.55"/><rect x="2" y="3" width="2" height="1" fill="#c8a35e"/><rect x="4" y="3" width="36" height="1" fill="#6b4a2e"/><rect x="40" y="3" width="2" height="1" fill="#c8a35e"/><rect x="42" y="3" width="1" height="1" fill="#1b130c" opacity="0.55"/><rect x="1" y="4" width="3" height="1" fill="#1b130c" opacity="0.55"/><rect x="4" y="4" width="36" height="1" fill="#dc5d55"/><rect x="40" y="4" width="3" height="1" fill="#1b130c" opacity="0.55"/><rect x="3" y="5" width="1" height="1" fill="#1b130c" opacity="0.55"/><rect x="4" y="5" width="36" height="1" fill="#dc5d55"/><rect x="40" y="5" width="1" height="1" fill="#1b130c" opacity="0.55"/><rect x="3" y="6" width="1" height="1" fill="#1b130c" opacity="0.55"/><rect x="4" y="6" width="2" height="1" fill="#dc5d55"/><rect x="6" y="6" width="32" height="1" fill="#a8322f"/><rect x="38" y="6" width="2" height="1" fill="#62201c"/><rect x="40" y="6" width="1" height="1" fill="#1b130c" opacity="0.55"/><rect x="3" y="7" width="1" height="1" fill="#1b130c" opacity="0.55"/><rect x="4" y="7" width="2" height="1" fill="#dc5d55"/><rect x="6" y="7" width="32" height="1" fill="#a8322f"/><rect x="38" y="7" width="2" height="1" fill="#62201c"/><rect x="40" y="7" width="1" height="1" fill="#1b130c" opacity="0.55"/><rect x="3" y="8" width="1" height="1" fill="#1b130c" opacity="0.55"/><rect x="4" y="8" width="2" height="1" fill="#dc5d55"/><rect x="6" y="8" width="2" height="1" fill="#a8322f"/><rect x="8" y="8" width="2" height="1" fill="#ecd59a"/><rect x="10" y="8" width="4" height="1" fill="#a8322f"/><rect x="14" y="8" width="4" height="1" fill="#1b130c"/><rect x="18" y="8" width="4" height="1" fill="#a8322f"/><rect x="22" y="8" width="4" height="1" fill="#1b130c"/><rect x="26" y="8" width="8" height="1" fill="#a8322f"/><rect x="34" y="8" width="2" height="1" fill="#ecd59a"/><rect x="36" y="8" width="2" height="1" fill="#a8322f"/><rect x="38" y="8" width="2" height="1" fill="#62201c"/><rect x="40" y="8" width="1" height="1" fill="#1b130c" opacity="0.55"/><rect x="3" y="9" width="1" height="1" fill="#1b130c" opacity="0.55"/><rect x="4" y="9" width="2" height="1" fill="#dc5d55"/><rect x="6" y="9" width="2" height="1" fill="#a8322f"/><rect x="8" y="9" width="2" height="1" fill="#ecd59a"/><rect x="10" y="9" width="4" height="1" fill="#a8322f"/><rect x="14" y="9" width="4" height="1" fill="#1b130c"/><rect x="18" y="9" width="4" height="1" fill="#a8322f"/><rect x="22" y="9" width="4" height="1" fill="#1b130c"/><rect x="26" y="9" width="8" height="1" fill="#a8322f"/><rect x="34" y="9" width="2" height="1" fill="#ecd59a"/><rect x="36" y="9" width="2" height="1" fill="#a8322f"/><rect x="38" y="9" width="2" height="1" fill="#62201c"/><rect x="40" y="9" width="1" height="1" fill="#1b130c" opacity="0.55"/><rect x="3" y="10" width="1" height="1" fill="#1b130c" opacity="0.55"/><rect x="4" y="10" width="2" height="1" fill="#dc5d55"/><rect x="6" y="10" width="6" height="1" fill="#a8322f"/><rect x="12" y="10" width="2" height="1" fill="#1b130c"/><rect x="14" y="10" width="4" height="1" fill="#f4efe6"/><rect x="18" y="10" width="4" height="1" fill="#1b130c"/><rect x="22" y="10" width="4" height="1" fill="#f4efe6"/><rect x="26" y="10" width="2" height="1" fill="#1b130c"/><rect x="28" y="10" width="10" height="1" fill="#a8322f"/><rect x="38" y="10" width="2" height="1" fill="#62201c"/><rect x="40" y="10" width="1" height="1" fill="#1b130c" opacity="0.55"/><rect x="3" y="11" width="1" height="1" fill="#1b130c" opacity="0.55"/><rect x="4" y="11" width="2" height="1" fill="#dc5d55"/><rect x="6" y="11" width="6" height="1" fill="#a8322f"/><rect x="12" y="11" width="2" height="1" fill="#1b130c"/><rect x="14" y="11" width="4" height="1" fill="#f4efe6"/><rect x="18" y="11" width="4" height="1" fill="#1b130c"/><rect x="22" y="11" width="4" height="1" fill="#f4efe6"/><rect x="26" y="11" width="2" height="1" fill="#1b130c"/><rect x="28" y="11" width="10" height="1" fill="#a8322f"/><rect x="38" y="11" width="2" height="1" fill="#62201c"/><rect x="40" y="11" width="1" height="1" fill="#1b130c" opacity="0.55"/><rect x="3" y="12" width="1" height="1" fill="#1b130c" opacity="0.55"/><rect x="4" y="12" width="2" height="1" fill="#dc5d55"/><rect x="6" y="12" width="6" height="1" fill="#a8322f"/><rect x="12" y="12" width="2" height="1" fill="#1b130c"/><rect x="14" y="12" width="2" height="1" fill="#f4efe6"/><rect x="16" y="12" width="2" height="1" fill="#dc5d55"/><rect x="18" y="12" width="8" height="1" fill="#f4efe6"/><rect x="26" y="12" width="2" height="1" fill="#1b130c"/><rect x="28" y="12" width="10" height="1" fill="#a8322f"/><rect x="38" y="12" width="2" height="1" fill="#62201c"/><rect x="40" y="12" width="1" height="1" fill="#1b130c" opacity="0.55"/><rect x="3" y="13" width="1" height="1" fill="#1b130c" opacity="0.55"/><rect x="4" y="13" width="2" height="1" fill="#dc5d55"/><rect x="6" y="13" width="6" height="1" fill="#a8322f"/><rect x="12" y="13" width="2" height="1" fill="#1b130c"/><rect x="14" y="13" width="2" height="1" fill="#f4efe6"/><rect x="16" y="13" width="2" height="1" fill="#dc5d55"/><rect x="18" y="13" width="8" height="1" fill="#f4efe6"/><rect x="26" y="13" width="2" height="1" fill="#1b130c"/><rect x="28" y="13" width="10" height="1" fill="#a8322f"/><rect x="38" y="13" width="2" height="1" fill="#62201c"/><rect x="40" y="13" width="1" height="1" fill="#1b130c" opacity="0.55"/><rect x="3" y="14" width="1" height="1" fill="#1b130c" opacity="0.55"/><rect x="4" y="14" width="2" height="1" fill="#dc5d55"/><rect x="6" y="14" width="6" height="1" fill="#a8322f"/><rect x="12" y="14" width="2" height="1" fill="#1b130c"/><rect x="14" y="14" width="12" height="1" fill="#f4efe6"/><rect x="26" y="14" width="2" height="1" fill="#1b130c"/><rect x="28" y="14" width="10" height="1" fill="#a8322f"/><rect x="38" y="14" width="2" height="1" fill="#62201c"/><rect x="40" y="14" width="1" height="1" fill="#1b130c" opacity="0.55"/><rect x="3" y="15" width="1" height="1" fill="#1b130c" opacity="0.55"/><rect x="4" y="15" width="2" height="1" fill="#dc5d55"/><rect x="6" y="15" width="6" height="1" fill="#a8322f"/><rect x="12" y="15" width="2" height="1" fill="#1b130c"/><rect x="14" y="15" width="12" height="1" fill="#f4efe6"/><rect x="26" y="15" width="2" height="1" fill="#1b130c"/><rect x="28" y="15" width="10" height="1" fill="#a8322f"/><rect x="38" y="15" width="2" height="1" fill="#62201c"/><rect x="40" y="15" width="1" height="1" fill="#1b130c" opacity="0.55"/><rect x="3" y="16" width="1" height="1" fill="#1b130c" opacity="0.55"/><rect x="4" y="16" width="2" height="1" fill="#dc5d55"/><rect x="6" y="16" width="8" height="1" fill="#a8322f"/><rect x="14" y="16" width="2" height="1" fill="#1b130c"/><rect x="16" y="16" width="8" height="1" fill="#f4efe6"/><rect x="24" y="16" width="2" height="1" fill="#1b130c"/><rect x="26" y="16" width="12" height="1" fill="#a8322f"/><rect x="38" y="16" width="2" height="1" fill="#62201c"/><rect x="40" y="16" width="1" height="1" fill="#1b130c" opacity="0.55"/><rect x="3" y="17" width="1" height="1" fill="#1b130c" opacity="0.55"/><rect x="4" y="17" width="2" height="1" fill="#dc5d55"/><rect x="6" y="17" width="8" height="1" fill="#a8322f"/><rect x="14" y="17" width="2" height="1" fill="#1b130c"/><rect x="16" y="17" width="8" height="1" fill="#f4efe6"/><rect x="24" y="17" width="2" height="1" fill="#1b130c"/><rect x="26" y="17" width="12" height="1" fill="#a8322f"/><rect x="38" y="17" width="2" height="1" fill="#62201c"/><rect x="40" y="17" width="1" height="1" fill="#1b130c" opacity="0.55"/><rect x="3" y="18" width="1" height="1" fill="#1b130c" opacity="0.55"/><rect x="4" y="18" width="2" height="1" fill="#dc5d55"/><rect x="6" y="18" width="10" height="1" fill="#a8322f"/><rect x="16" y="18" width="2" height="1" fill="#1b130c"/><rect x="18" y="18" width="4" height="1" fill="#f4efe6"/><rect x="22" y="18" width="2" height="1" fill="#1b130c"/><rect x="24" y="18" width="14" height="1" fill="#a8322f"/><rect x="38" y="18" width="2" height="1" fill="#62201c"/><rect x="40" y="18" width="1" height="1" fill="#1b130c" opacity="0.55"/><rect x="3" y="19" width="1" height="1" fill="#1b130c" opacity="0.55"/><rect x="4" y="19" width="2" height="1" fill="#dc5d55"/><rect x="6" y="19" width="10" height="1" fill="#a8322f"/><rect x="16" y="19" width="2" height="1" fill="#1b130c"/><rect x="18" y="19" width="4" height="1" fill="#f4efe6"/><rect x="22" y="19" width="2" height="1" fill="#1b130c"/><rect x="24" y="19" width="14" height="1" fill="#a8322f"/><rect x="38" y="19" width="2" height="1" fill="#62201c"/><rect x="40" y="19" width="1" height="1" fill="#1b130c" opacity="0.55"/><rect x="3" y="20" width="1" height="1" fill="#1b130c" opacity="0.55"/><rect x="4" y="20" width="2" height="1" fill="#dc5d55"/><rect x="6" y="20" width="12" height="1" fill="#a8322f"/><rect x="18" y="20" width="4" height="1" fill="#1b130c"/><rect x="22" y="20" width="16" height="1" fill="#a8322f"/><rect x="38" y="20" width="2" height="1" fill="#62201c"/><rect x="40" y="20" width="1" height="1" fill="#1b130c" opacity="0.55"/><rect x="3" y="21" width="1" height="1" fill="#1b130c" opacity="0.55"/><rect x="4" y="21" width="2" height="1" fill="#dc5d55"/><rect x="6" y="21" width="12" height="1" fill="#a8322f"/><rect x="18" y="21" width="4" height="1" fill="#1b130c"/><rect x="22" y="21" width="16" height="1" fill="#a8322f"/><rect x="38" y="21" width="2" height="1" fill="#62201c"/><rect x="40" y="21" width="1" height="1" fill="#1b130c" opacity="0.55"/><rect x="3" y="22" width="1" height="1" fill="#1b130c" opacity="0.55"/><rect x="4" y="22" width="2" height="1" fill="#dc5d55"/><rect x="6" y="22" width="2" height="1" fill="#a8322f"/><rect x="8" y="22" width="2" height="1" fill="#ecd59a"/><rect x="10" y="22" width="24" height="1" fill="#a8322f"/><rect x="34" y="22" width="2" height="1" fill="#ecd59a"/><rect x="36" y="22" width="2" height="1" fill="#a8322f"/><rect x="38" y="22" width="2" height="1" fill="#62201c"/><rect x="40" y="22" width="1" height="1" fill="#1b130c" opacity="0.55"/><rect x="3" y="23" width="1" height="1" fill="#1b130c" opacity="0.55"/><rect x="4" y="23" width="2" height="1" fill="#dc5d55"/><rect x="6" y="23" width="2" height="1" fill="#a8322f"/><rect x="8" y="23" width="2" height="1" fill="#ecd59a"/><rect x="10" y="23" width="24" height="1" fill="#a8322f"/><rect x="34" y="23" width="2" height="1" fill="#ecd59a"/><rect x="36" y="23" width="2" height="1" fill="#a8322f"/><rect x="38" y="23" width="2" height="1" fill="#62201c"/><rect x="40" y="23" width="1" height="1" fill="#1b130c" opacity="0.55"/><rect x="3" y="24" width="1" height="1" fill="#1b130c" opacity="0.55"/><rect x="4" y="24" width="2" height="1" fill="#dc5d55"/><rect x="6" y="24" width="32" height="1" fill="#a8322f"/><rect x="38" y="24" width="2" height="1" fill="#62201c"/><rect x="40" y="24" width="1" height="1" fill="#1b130c" opacity="0.55"/><rect x="3" y="25" width="1" height="1" fill="#1b130c" opacity="0.55"/><rect x="4" y="25" width="2" height="1" fill="#dc5d55"/><rect x="6" y="25" width="32" height="1" fill="#a8322f"/><rect x="38" y="25" width="2" height="1" fill="#62201c"/><rect x="40" y="25" width="1" height="1" fill="#1b130c" opacity="0.55"/><rect x="3" y="26" width="1" height="1" fill="#1b130c" opacity="0.55"/><rect x="4" y="26" width="2" height="1" fill="#dc5d55"/><rect x="6" y="26" width="32" height="1" fill="#e3b23c"/><rect x="38" y="26" width="2" height="1" fill="#62201c"/><rect x="40" y="26" width="1" height="1" fill="#1b130c" opacity="0.55"/><rect x="3" y="27" width="1" height="1" fill="#1b130c" opacity="0.55"/><rect x="4" y="27" width="2" height="1" fill="#dc5d55"/><rect x="6" y="27" width="32" height="1" fill="#e3b23c"/><rect x="38" y="27" width="2" height="1" fill="#62201c"/><rect x="40" y="27" width="1" height="1" fill="#1b130c" opacity="0.55"/><rect x="3" y="28" width="1" height="1" fill="#1b130c" opacity="0.55"/><rect x="4" y="28" width="2" height="1" fill="#dc5d55"/><rect x="6" y="28" width="32" height="1" fill="#c8a35e"/><rect x="38" y="28" width="2" height="1" fill="#62201c"/><rect x="40" y="28" width="1" height="1" fill="#1b130c" opacity="0.55"/><rect x="3" y="29" width="1" height="1" fill="#1b130c" opacity="0.55"/><rect x="4" y="29" width="2" height="1" fill="#dc5d55"/><rect x="6" y="29" width="32" height="1" fill="#c8a35e"/><rect x="38" y="29" width="2" height="1" fill="#62201c"/><rect x="40" y="29" width="1" height="1" fill="#1b130c" opacity="0.55"/><rect x="3" y="30" width="1" height="1" fill="#1b130c" opacity="0.55"/><rect x="4" y="30" width="2" height="1" fill="#dc5d55"/><rect x="6" y="30" width="32" height="1" fill="#a8322f"/><rect x="38" y="30" width="2" height="1" fill="#62201c"/><rect x="40" y="30" width="1" height="1" fill="#1b130c" opacity="0.55"/><rect x="3" y="31" width="1" height="1" fill="#1b130c" opacity="0.55"/><rect x="4" y="31" width="2" height="1" fill="#dc5d55"/><rect x="6" y="31" width="32" height="1" fill="#a8322f"/><rect x="38" y="31" width="2" height="1" fill="#62201c"/><rect x="40" y="31" width="1" height="1" fill="#1b130c" opacity="0.55"/><rect x="3" y="32" width="1" height="1" fill="#1b130c" opacity="0.55"/><rect x="4" y="32" width="2" height="1" fill="#dc5d55"/><rect x="6" y="32" width="14" height="1" fill="#a8322f"/><rect x="20" y="32" width="4" height="1" fill="#1b130c" opacity="0.55"/><rect x="24" y="32" width="14" height="1" fill="#a8322f"/><rect x="38" y="32" width="2" height="1" fill="#62201c"/><rect x="40" y="32" width="1" height="1" fill="#1b130c" opacity="0.55"/><rect x="3" y="33" width="1" height="1" fill="#1b130c" opacity="0.55"/><rect x="4" y="33" width="2" height="1" fill="#dc5d55"/><rect x="6" y="33" width="14" height="1" fill="#a8322f"/><rect x="20" y="33" width="1" height="1" fill="#1b130c" opacity="0.55"/><rect x="23" y="33" width="1" height="1" fill="#1b130c" opacity="0.55"/><rect x="24" y="33" width="14" height="1" fill="#a8322f"/><rect x="38" y="33" width="2" height="1" fill="#62201c"/><rect x="40" y="33" width="1" height="1" fill="#1b130c" opacity="0.55"/><rect x="3" y="34" width="1" height="1" fill="#1b130c" opacity="0.55"/><rect x="4" y="34" width="2" height="1" fill="#dc5d55"/><rect x="6" y="34" width="12" height="1" fill="#a8322f"/><rect x="18" y="34" width="3" height="1" fill="#1b130c" opacity="0.55"/><rect x="23" y="34" width="3" height="1" fill="#1b130c" opacity="0.55"/><rect x="26" y="34" width="12" height="1" fill="#a8322f"/><rect x="38" y="34" width="2" height="1" fill="#62201c"/><rect x="40" y="34" width="1" height="1" fill="#1b130c" opacity="0.55"/><rect x="3" y="35" width="1" height="1" fill="#1b130c" opacity="0.55"/><rect x="4" y="35" width="2" height="1" fill="#dc5d55"/><rect x="6" y="35" width="12" height="1" fill="#a8322f"/><rect x="18" y="35" width="1" height="1" fill="#1b130c" opacity="0.55"/><rect x="25" y="35" width="1" height="1" fill="#1b130c" opacity="0.55"/><rect x="26" y="35" width="12" height="1" fill="#a8322f"/><rect x="38" y="35" width="2" height="1" fill="#62201c"/><rect x="40" y="35" width="1" height="1" fill="#1b130c" opacity="0.55"/><rect x="3" y="36" width="1" height="1" fill="#1b130c" opacity="0.55"/><rect x="4" y="36" width="2" height="1" fill="#dc5d55"/><rect x="6" y="36" width="10" height="1" fill="#a8322f"/><rect x="16" y="36" width="3" height="1" fill="#1b130c" opacity="0.55"/><rect x="25" y="36" width="3" height="1" fill="#1b130c" opacity="0.55"/><rect x="28" y="36" width="10" height="1" fill="#a8322f"/><rect x="38" y="36" width="2" height="1" fill="#62201c"/><rect x="40" y="36" width="1" height="1" fill="#1b130c" opacity="0.55"/><rect x="3" y="37" width="1" height="1" fill="#1b130c" opacity="0.55"/><rect x="4" y="37" width="2" height="1" fill="#dc5d55"/><rect x="6" y="37" width="10" height="1" fill="#a8322f"/><rect x="16" y="37" width="1" height="1" fill="#1b130c" opacity="0.55"/><rect x="27" y="37" width="1" height="1" fill="#1b130c" opacity="0.55"/><rect x="28" y="37" width="10" height="1" fill="#a8322f"/><rect x="38" y="37" width="2" height="1" fill="#62201c"/><rect x="40" y="37" width="1" height="1" fill="#1b130c" opacity="0.55"/><rect x="3" y="38" width="1" height="1" fill="#1b130c" opacity="0.55"/><rect x="4" y="38" width="2" height="1" fill="#dc5d55"/><rect x="6" y="38" width="8" height="1" fill="#a8322f"/><rect x="14" y="38" width="3" height="1" fill="#1b130c" opacity="0.55"/><rect x="27" y="38" width="3" height="1" fill="#1b130c" opacity="0.55"/><rect x="30" y="38" width="8" height="1" fill="#a8322f"/><rect x="38" y="38" width="2" height="1" fill="#62201c"/><rect x="40" y="38" width="1" height="1" fill="#1b130c" opacity="0.55"/><rect x="3" y="39" width="1" height="1" fill="#1b130c" opacity="0.55"/><rect x="4" y="39" width="2" height="1" fill="#dc5d55"/><rect x="6" y="39" width="8" height="1" fill="#a8322f"/><rect x="14" y="39" width="1" height="1" fill="#1b130c" opacity="0.55"/><rect x="29" y="39" width="1" height="1" fill="#1b130c" opacity="0.55"/><rect x="30" y="39" width="8" height="1" fill="#a8322f"/><rect x="38" y="39" width="2" height="1" fill="#62201c"/><rect x="40" y="39" width="1" height="1" fill="#1b130c" opacity="0.55"/><rect x="3" y="40" width="12" height="1" fill="#1b130c" opacity="0.55"/><rect x="29" y="40" width="12" height="1" fill="#1b130c" opacity="0.55"/></svg>