<svg xmlns="http://www.w3.org/2000/svg" viewBox="0 0 44 42" width="88" height="84" shape-rendering="crispEdges"><rect x="1" y="1" width="42" height="1" fill="#1b130c" opacity="0.55"/><rect x="1" y="2" width="1" height="1" fill="#1b130c" opacity="0.55"/><rect x="2" y="2" width="40" height="1" fill="#ecd59a"/><rect x="42" y="2" width="1" height="1" fill="#1b130c" opacity="0.55"/><rect x="1" y="3" width="1" height="1" fill="#1b130c" opacity="0.55"/><rect x="2" y="3" width="40" height="1" fill="#ecd59a"/><rect x="42" y="3" width="1" height="1" fill="#1b130c" opacity="0.55"/><rect x="1" y="4" width="1" height="1" fill="#1b130c" opacity="0.55"/><rect x="2" y="4" width="2" height="1" fill="#ecd59a"/><rect x="4" y="4" width="36" height="1" fill="#c8a35e"/><rect x="40" y="4" width="2" height="1" fill="#86652a"/><rect x="42" y="4" width="1" height="1" fill="#1b130c" opacity="0.55"/><rect x="1" y="5" width="1" height="1" fill="#1b130c" opacity="0.55"/><rect x="2" y="5" width="2" height="1" fill="#ecd59a"/><rect x="4" y="5" width="36" height="1" fill="#c8a35e"/><rect x="40" y="5" width="2" height="1" fill="#86652a"/><rect x="42" y="5" width="1" height="1" fill="#1b130c" opacity="0.55"/><rect x="1" y="6" width="1" height="1" fill="#1b130c" opacity="0.55"/><rect x="2" y="6" width="2" height="1" fill="#ecd59a"/><rect x="4" y="6" width="2" height="1" fill="#c8a35e"/><rect x="6" y="6" width="32" height="1" fill="#1b130c"/><rect x="38" y="6" width="2" height="1" fill="#c8a35e"/><rect x="40" y="6" width="2" height="1" fill="#86652a"/><rect x="42" y="6" width="1" height="1" fill="#1b130c" opacity="0.55"/><rect x="1" y="7" width="1" height="1" fill="#1b130c" opacity="0.55"/><rect x="2" y="7" width="2" height="1" fill="#ecd59a"/><rect x="4" y="7" width="2" height="1" fill="#c8a35e"/><rect x="6" y="7" width="32" height="1" fill="#1b130c"/><rect x="38" y="7" width="2" height="1" fill="#c8a35e"/><rect x="40" y="7" width="2" height="1" fill="#86652a"/><rect x="42" y="7" width="1" height="1" fill="#1b130c" opacity="0.55"/><rect x="1" y="8" width="1" height="1" fill="#1b130c" opacity="0.55"/><rect x="2" y="8" width="2" height="1" fill="#ecd59a"/><rect x="4" y="8" width="2" height="1" fill="#c8a35e"/><rect x="6" y="8" width="2" height="1" fill="#1b130c"/><rect x="8" y="8" width="28" height="1" fill="#fbf4e2"/><rect x="36" y="8" width="2" height="1" fill="#1b130c"/><rect x="38" y="8" width="2" height="1" fill="#c8a35e"/><rect x="40" y="8" width="2" height="1" fill="#86652a"/><rect x="42" y="8" width="1" height="1" fill="#1b130c" opacity="0.55"/><rect x="1" y="9" width="1" height="1" fill="#1b130c" opacity="0.55"/><rect x="2" y="9" width="2" height="1" fill="#ecd59a"/><rect x="4" y="9" width="2" height="1" fill="#c8a35e"/><rect x="6" y="9" width="2" height="1" fill="#1b130c"/><rect x="8" y="9" width="28" height="1" fill="#fbf4e2"/><rect x="36" y="9" width="2" height="1" fill="#1b130c"/><rect x="38" y="9" width="2" height="1" fill="#c8a35e"/><rect x="40" y="9" width="2" height="1" fill="#86652a"/><rect x="42" y="9" width="1" height="1" fill="#1b130c" opacity="0.55"/><rect x="1" y="10" width="1" height="1" fill="#1b130c" opacity="0.55"/><rect x="2" y="10" width="2" height="1" fill="#ecd59a"/><rect x="4" y="10" width="2" height="1" fill="#c8a35e"/><rect x="6" y="10" width="2" height="1" fill="#1b130c"/><rect x="8" y="10" width="2" height="1" fill="#fbf4e2"/><rect x="10" y="10" width="24" height="1" fill="#f4efe6"/><rect x="34" y="10" width="2" height="1" fill="#d9cfb2"/><rect x="36" y="10" width="2" height="1" fill="#1b130c"/><rect x="38" y="10" width="2" height="1" fill="#c8a35e"/><rect x="40" y="10" width="2" height="1" fill="#86652a"/><rect x="42" y="10" width="1" height="1" fill="#1b130c" opacity="0.55"/><rect x="1" y="11" width="1" height="1" fill="#1b130c" opacity="0.55"/><rect x="2" y="11" width="2" height="1" fill="#ecd59a"/><rect x="4" y="11" width="2" height="1" fill="#c8a35e"/><rect x="6" y="11" width="2" height="1" fill="#1b130c"/><rect x="8" y="11" width="2" height="1" fill="#fbf4e2"/><rect x="10" y="11" width="24" height="1" fill="#f4efe6"/><rect x="34" y="11" width="2" height="1" fill="#d9cfb2"/><rect x="36" y="11" width="2" height="1" fill="#1b130c"/><rect x="38" y="11" width="2" height="1" fill="#c8a35e"/><rect x="40" y="11" width="2" height="1" fill="#86652a"/><rect x="42" y="11" width="1" height="1" fill="#1b130c" opacity="0.55"/><rect x="1" y="12" width="1" height="1" fill="#1b130c" opacity="0.55"/><rect x="2" y="12" width="2" height="1" fill="#ecd59a"/><rect x="4" y="12" width="2" height="1" fill="#c8a35e"/><rect x="6" y="12" width="2" height="1" fill="#1b130c"/><rect x="8" y="12" width="2" height="1" fill="#fbf4e2"/><rect x="10" y="12" width="10" height="1" fill="#f4efe6"/><rect x="20" y="12" width="4" height="1" fill="#dc5d55"/><rect x="24" y="12" width="10" height="1" fill="#f4efe6"/><rect x="34" y="12" width="2" height="1" fill="#d9cfb2"/><rect x="36" y="12" width="2" height="1" fill="#1b130c"/><rect x="38" y="12" width="2" height="1" fill="#c8a35e"/><rect x="40" y="12" width="2" height="1" fill="#86652a"/><rect x="42" y="12" width="1" height="1" fill="#1b130c" opacity="0.55"/><rect x="1" y="13" width="1" height="1" fill="#1b130c" opacity="0.55"/><rect x="2" y="13" width="2" height="1" fill="#ecd59a"/><rect x="4" y="13" width="2" height="1" fill="#c8a35e"/><rect x="6" y="13" width="2" height="1" fill="#1b130c"/><rect x="8" y="13" width="2" height="1" fill="#fbf4e2"/><rect x="10" y="13" width="10" height="1" fill="#f4efe6"/><rect x="20" y="13" width="4" height="1" fill="#dc5d55"/><rect x="24" y="13" width="10" height="1" fill="#f4efe6"/><rect x="34" y="13" width="2" height="1" fill="#d9cfb2"/><rect x="36" y="13" width="2" height="1" fill="#1b130c"/><rect x="38" y="13" width="2" height="1" fill="#c8a35e"/><rect x="40" y="13" width="2" height="1" fill="#86652a"/><rect x="42" y="13" width="1" height="1" fill="#1b130c" opacity="0.55"/><rect x="1" y="14" width="1" height="1" fill="#1b130c" opacity="0.55"/><rect x="2" y="14" width="2" height="1" fill="#ecd59a"/><rect x="4" y="14" width="2" height="1" fill="#c8a35e"/><rect x="6" y="14" width="2" height="1" fill="#1b130c"/><rect x="8" y="14" width="2" height="1" fill="#fbf4e2"/><rect x="10" y="14" width="10" height="1" fill="#f4efe6"/><rect x="20" y="14" width="2" height="1" fill="#dc5d55"/><rect x="22" y="14" width="2" height="1" fill="#a8322f"/><rect x="24" y="14" width="10" height="1" fill="#f4efe6"/><rect x="34" y="14" width="2" height="1" fill="#d9cfb2"/><rect x="36" y="14" width="2" height="1" fill="#1b130c"/><rect x="38" y="14" width="2" height="1" fill="#c8a35e"/><rect x="40" y="14" width="2" height="1" fill="#86652a"/><rect x="42" y="14" width="1" height="1" fill="#1b130c" opacity="0.55"/><rect x="1" y="15" width="1" height="1" fill="#1b130c" opacity="0.55"/><rect x="2" y="15" width="2" height="1" fill="#ecd59a"/><rect x="4" y="15" width="2" height="1" fill="#c8a35e"/><rect x="6" y="15" width="2" height="1" fill="#1b130c"/><rect x="8" y="15" width="2" height="1" fill="#fbf4e2"/><rect x="10" y="15" width="10" height="1" fill="#f4efe6"/><rect x="20" y="15" width="2" height="1" fill="#dc5d55"/><rect x="22" y="15" width="2" height="1" fill="#a8322f"/><rect x="24" y="15" width="10" height="1" fill="#f4efe6"/><rect x="34" y="15" width="2" height="1" fill="#d9cfb2"/><rect x="36" y="15" width="2" height="1" fill="#1b130c"/><rect x="38" y="15" width="2" height="1" fill="#c8a35e"/><rect x="40" y="15" width="2" height="1" fill="#86652a"/><rect x="42" y="15" width="1" height="1" fill="#1b130c" opacity="0.55"/><rect x="1" y="16" width="1" height="1" fill="#1b130c" opacity="0.55"/><rect x="2" y="16" width="2" height="1" fill="#ecd59a"/><rect x="4" y="16" width="2" height="1" fill="#c8a35e"/><rect x="6" y="16" width="2" height="1" fill="#1b130c"/><rect x="8" y="16" width="2" height="1" fill="#fbf4e2"/><rect x="10" y="16" width="10" height="1" fill="#f4efe6"/><rect x="20" y="16" width="2" height="1" fill="#dc5d55"/><rect x="22" y="16" width="2" height="1" fill="#a8322f"/><rect x="24" y="16" width="10" height="1" fill="#f4efe6"/><rect x="34" y="16" width="2" height="1" fill="#d9cfb2"/><rect x="36" y="16" width="2" height="1" fill="#1b130c"/><rect x="38" y="16" width="2" height="1" fill="#c8a35e"/><rect x="40" y="16" width="2" height="1" fill="#86652a"/><rect x="42" y="16" width="1" height="1" fill="#1b130c" opacity="0.55"/><rect x="1" y="17" width="1" height="1" fill="#1b130c" opacity="0.55"/><rect x="2" y="17" width="2" height="1" fill="#ecd59a"/><rect x="4" y="17" width="2" height="1" fill="#c8a35e"/><rect x="6" y="17" width="2" height="1" fill="#1b130c"/><rect x="8" y="17" width="2" height="1" fill="#fbf4e2"/><rect x="10" y="17" width="10" height="1" fill="#f4efe6"/><rect x="20" y="17" width="2" height="1" fill="#dc5d55"/><rect x="22" y="17" width="2" height="1" fill="#a8322f"/><rect x="24" y="17" width="10" height="1" fill="#f4efe6"/><rect x="34" y="17" width="2" height="1" fill="#d9cfb2"/><rect x="36" y="17" width="2" height="1" fill="#1b130c"/><rect x="38" y="17" width="2" height="1" fill="#c8a35e"/><rect x="40" y="17" width="2" height="1" fill="#86652a"/><rect x="42" y="17" width="1" height="1" fill="#1b130c" opacity="0.55"/><rect x="1" y="18" width="1" height="1" fill="#1b130c" opacity="0.55"/><rect x="2" y="18" width="2" height="1" fill="#ecd59a"/><rect x="4" y="18" width="2" height="1" fill="#c8a35e"/><rect x="6" y="18" width="2" height="1" fill="#1b130c"/><rect x="8" y="18" width="2" height="1" fill="#fbf4e2"/><rect x="10" y="18" width="4" height="1" fill="#f4efe6"/><rect x="14" y="18" width="8" height="1" fill="#dc5d55"/><rect x="22" y="18" width="8" height="1" fill="#a8322f"/><rect x="30" y="18" width="4" height="1" fill="#f4efe6"/><rect x="34" y="18" width="2" height="1" fill="#d9cfb2"/><rect x="36" y="18" width="2" height="1" fill="#1b130c"/><rect x="38" y="18" width="2" height="1" fill="#c8a35e"/><rect x="40" y="18" width="2" height="1" fill="#86652a"/><rect x="42" y="18" width="1" height="1" fill="#1b130c" opacity="0.55"/><rect x="1" y="19" width="1" height="1" fill="#1b130c" opacity="0.55"/><rect x="2" y="19" width="2" height="1" fill="#ecd59a"/><rect x="4" y="19" width="2" height="1" fill="#c8a35e"/><rect x="6" y="19" width="2" height="1" fill="#1b130c"/><rect x="8" y="19" width="2" height="1" fill="#fbf4e2"/><rect x="10" y="19" width="4" height="1" fill="#f4efe6"/><rect x="14" y="19" width="8" height="1" fill="#dc5d55"/><rect x="22" y="19" width="8" height="1" fill="#a8322f"/><rect x="30" y="19" width="4" height="1" fill="#f4efe6"/><rect x="34" y="19" width="2" height="1" fill="#d9cfb2"/><rect x="36" y="19" width="2" height="1" fill="#1b130c"/><rect x="38" y="19" width="2" height="1" fill="#c8a35e"/><rect x="40" y="19" width="2" height="1" fill="#86652a"/><rect x="42" y="19" width="1" height="1" fill="#1b130c" opacity="0.55"/><rect x="1" y="20" width="1" height="1" fill="#1b130c" opacity="0.55"/><rect x="2" y="20" width="2" height="1" fill="#ecd59a"/><rect x="4" y="20" width="2" height="1" fill="#c8a35e"/><rect x="6" y="20" width="2" height="1" fill="#1b130c"/><rect x="8" y="20" width="2" height="1" fill="#fbf4e2"/><rect x="10" y="20" width="4" height="1" fill="#f4efe6"/><rect x="14" y="20" width="2" height="1" fill="#dc5d55"/><rect x="16" y="20" width="14" height="1" fill="#a8322f"/><rect x="30" y="20" width="4" height="1" fill="#f4efe6"/><rect x="34" y="20" width="2" height="1" fill="#d9cfb2"/><rect x="36" y="20" width="2" height="1" fill="#1b130c"/><rect x="38" y="20" width="2" height="1" fill="#c8a35e"/><rect x="40" y="20" width="2" height="1" fill="#86652a"/><rect x="42" y="20" width="1" height="1" fill="#1b130c" opacity="0.55"/><rect x="1" y="21" width="1" height="1" fill="#1b130c" opacity="0.55"/><rect x="2" y="21" width="2" height="1" fill="#ecd59a"/><rect x="4" y="21" width="2" height="1" fill="#c8a35e"/><rect x="6" y="21" width="2" height="1" fill="#1b130c"/><rect x="8" y="21" width="2" height="1" fill="#fbf4e2"/><rect x="10" y="21" width="4" height="1" fill="#f4efe6"/><rect x="14" y="21" width="2" height="1" fill="#dc5d55"/><rect x="16" y="21" width="14" height="1" fill="#a8322f"/><rect x="30" y="21" width="4" height="1" fill="#f4efe6"/><rect x="34" y="21" width="2" height="1" fill="#d9cfb2"/><rect x="36" y="21" width="2" height="1" fill="#1b130c"/><rect x="38" y="21" width="2" height="1" fill="#c8a35e"/><rect x="40" y="21" width="2" height="1" fill="#86652a"/><rect x="42" y="21" width="1" height="1" fill="#1b130c" opacity="0.55"/><rect x="1" y="22" width="1" height="1" fill="#1b130c" opacity="0.55"/><rect x="2" y="22" width="2" height="1" fill="#ecd59a"/><rect x="4" y="22" width="2" height="1" fill="#c8a35e"/><rect x="6" y="22" width="2" height="1" fill="#1b130c"/><rect x="8" y="22" width="2" height="1" fill="#fbf4e2"/><rect x="10" y="22" width="10" height="1" fill="#f4efe6"/><rect x="20" y="22" width="2" height="1" fill="#dc5d55"/><rect x="22" y="22" width="2" height="1" fill="#a8322f"/><rect x="24" y="22" width="10" height="1" fill="#f4efe6"/><rect x="34" y="22" width="2" height="1" fill="#d9cfb2"/><rect x="36" y="22" width="2" height="1" fill="#1b130c"/><rect x="38" y="22" width="2" height="1" fill="#c8a35e"/><rect x="40" y="22" width="2" height="1" fill="#86652a"/><rect x="42" y="22" width="1" height="1" fill="#1b130c" opacity="0.55"/><rect x="1" y="23" width="1" height="1" fill="#1b130c" opacity="0.55"/><rect x="2" y="23" width="2" height="1" fill="#ecd59a"/><rect x="4" y="23" width="2" height="1" fill="#c8a35e"/><rect x="6" y="23" width="2" height="1" fill="#1b130c"/><rect x="8" y="23" width="2" height="1" fill="#fbf4e2"/><rect x="10" y="23" width="10" height="1" fill="#f4efe6"/><rect x="20" y="23" width="2" height="1" fill="#dc5d55"/><rect x="22" y="23" width="2" height="1" fill="#a8322f"/><rect x="24" y="23" width="10" height="1" fill="#f4efe6"/><rect x="34" y="23" width="2" height="1" fill="#d9cfb2"/><rect x="36" y="23" width="2" height="1" fill="#1b130c"/><rect x="38" y="23" width="2" height="1" fill="#c8a35e"/><rect x="40" y="23" width="2" height="1" fill="#86652a"/><rect x="42" y="23" width="1" height="1" fill="#1b130c" opacity="0.55"/><rect x="1" y="24" width="1" height="1" fill="#1b130c" opacity="0.55"/><rect x="2" y="24" width="2" height="1" fill="#ecd59a"/><rect x="4" y="24" width="2" height="1" fill="#c8a35e"/><rect x="6" y="24" width="2" height="1" fill="#1b130c"/><rect x="8" y="24" width="2" height="1" fill="#fbf4e2"/><rect x="10" y="24" width="10" height="1" fill="#f4efe6"/><rect x="20" y="24" width="2" height="1" fill="#dc5d55"/><rect x="22" y="24" width="2" height="1" fill="#a8322f"/><rect x="24" y="24" width="10" height="1" fill="#f4efe6"/><rect x="34" y="24" width="2" height="1" fill="#d9cfb2"/><rect x="36" y="24" width="2" height="1" fill="#1b130c"/><rect x="38" y="24" width="2" height="1" fill="#c8a35e"/><rect x="40" y="24" width="2" height="1" fill="#86652a"/><rect x="42" y="24" width="1" height="1" fill="#1b130c" opacity="0.55"/><rect x="1" y="25" width="1" height="1" fill="#1b130c" opacity="0.55"/><rect x="2" y="25" width="2" height="1" fill="#ecd59a"/><rect x="4" y="25" width="2" height="1" fill="#c8a35e"/><rect x="6" y="25" width="2" height="1" fill="#1b130c"/><rect x="8" y="25" width="2" height="1" fill="#fbf4e2"/><rect x="10" y="25" width="10" height="1" fill="#f4efe6"/><rect x="20" y="25" width="2" height="1" fill="#dc5d55"/><rect x="22" y="25" width="2" height="1" fill="#a8322f"/><rect x="24" y="25" width="10" height="1" fill="#f4efe6"/><rect x="34" y="25" width="2" height="1" fill="#d9cfb2"/><rect x="36" y="25" width="2" height="1" fill="#1b130c"/><rect x="38" y="25" width="2" height="1" fill="#c8a35e"/><rect x="40" y="25" width="2" height="1" fill="#86652a"/><rect x="42" y="25" width="1" height="1" fill="#1b130c" opacity="0.55"/><rect x="1" y="26" width="1" height="1" fill="#1b130c" opacity="0.55"/><rect x="2" y="26" width="2" height="1" fill="#ecd59a"/><rect x="4" y="26" width="2" height="1" fill="#c8a35e"/><rect x="6" y="26" width="2" height="1" fill="#1b130c"/><rect x="8" y="26" width="2" height="1" fill="#fbf4e2"/><rect x="10" y="26" width="10" height="1" fill="#f4efe6"/><rect x="20" y="26" width="4" height="1" fill="#a8322f"/><rect x="24" y="26" width="10" height="1" fill="#f4efe6"/><rect x="34" y="26" width="2" height="1" fill="#d9cfb2"/><rect x="36" y="26" width="2" height="1" fill="#1b130c"/><rect x="38" y="26" width="2" height="1" fill="#c8a35e"/><rect x="40" y="26" width="2" height="1" fill="#86652a"/><rect x="42" y="26" width="1" height="1" fill="#1b130c" opacity="0.55"/><rect x="1" y="27" width="1" height="1" fill="#1b130c" opacity="0.55"/><rect x="2" y="27" width="2" height="1" fill="#ecd59a"/><rect x="4" y="27" width="2" height="1" fill="#c8a35e"/><rect x="6" y="27" width="2" height="1" fill="#1b130c"/><rect x="8" y="27" width="2" height="1" fill="#fbf4e2"/><rect x="10" y="27" width="10" height="1" fill="#f4efe6"/><rect x="20" y="27" width="4" height="1" fill="#a8322f"/><rect x="24" y="27" width="10" height="1" fill="#f4efe6"/><rect x="34" y="27" width="2" height="1" fill="#d9cfb2"/><rect x="36" y="27" width="2" height="1" fill="#1b130c"/><rect x="38" y="27" width="2" height="1" fill="#c8a35e"/><rect x="40" y="27" width="2" height="1" fill="#86652a"/><rect x="42" y="27" width="1" height="1" fill="#1b130c" opacity="0.55"/><rect x="1" y="28" width="1" height="1" fill="#1b130c" opacity="0.55"/><rect x="2" y="28" width="2" height="1" fill="#ecd59a"/><rect x="4" y="28" width="2" height="1" fill="#c8a35e"/><rect x="6" y="28" width="2" height="1" fill="#1b130c"/><rect x="8" y="28" width="2" height="1" fill="#fbf4e2"/><rect x="10" y="28" width="24" height="1" fill="#f4efe6"/><rect x="34" y="28" width="2" height="1" fill="#d9cfb2"/><rect x="36" y="28" width="2" height="1" fill="#1b130c"/><rect x="38" y="28" width="2" height="1" fill="#c8a35e"/><rect x="40" y="28" width="2" height="1" fill="#86652a"/><rect x="42" y="28" width="1" height="1" fill="#1b130c" opacity="0.55"/><rect x="1" y="29" width="1" height="1" fill="#1b130c" opacity="0.55"/><rect x="2" y="29" width="2" height="1" fill="#ecd59a"/><rect x="4" y="29" width="2" height="1" fill="#c8a35e"/><rect x="6" y="29" width="2" height="1" fill="#1b130c"/><rect x="8" y="29" width="2" height="1" fill="#fbf4e2"/><rect x="10" y="29" width="24" height="1" fill="#f4efe6"/><rect x="34" y="29" width="2" height="1" fill="#d9cfb2"/><rect x="36" y="29" width="2" height="1" fill="#1b130c"/><rect x="38" y="29" width="2" height="1" fill="#c8a35e"/><rect x="40" y="29" width="2" height="1" fill="#86652a"/><rect x="42" y="29" width="1" height="1" fill="#1b130c" opacity="0.55"/><rect x="1" y="30" width="1" height="1" fill="#1b130c" opacity="0.55"/><rect x="2" y="30" width="2" height="1" fill="#ecd59a"/><rect x="4" y="30" width="2" height="1" fill="#c8a35e"/><rect x="6" y="30" width="2" height="1" fill="#1b130c"/><rect x="8" y="30" width="2" height="1" fill="#fbf4e2"/><rect x="10" y="30" width="4" height="1" fill="#f4efe6"/><rect x="14" y="30" width="14" height="1" fill="#5c4a36"/><rect x="28" y="30" width="6" height="1" fill="#f4efe6"/><rect x="34" y="30" width="2" height="1" fill="#d9cfb2"/><rect x="36" y="30" width="2" height="1" fill="#1b130c"/><rect x="38" y="30" width="2" height="1" fill="#c8a35e"/><rect x="40" y="30" width="2" height="1" fill="#86652a"/><rect x="42" y="30" width="1" height="1" fill="#1b130c" opacity="0.55"/><rect x="1" y="31" width="1" height="1" fill="#1b130c" opacity="0.55"/><rect x="2" y="31" width="2" height="1" fill="#ecd59a"/><rect x="4" y="31" width="2" height="1" fill="#c8a35e"/><rect x="6" y="31" width="2" height="1" fill="#1b130c"/><rect x="8" y="31" width="2" height="1" fill="#fbf4e2"/><rect x="10" y="31" width="4" height="1" fill="#f4efe6"/><rect x="14" y="31" width="14" height="1" fill="#5c4a36"/><rect x="28" y="31" width="6" height="1" fill="#f4efe6"/><rect x="34" y="31" width="2" height="1" fill="#d9cfb2"/><rect x="36" y="31" width="2" height="1" fill="#1b130c"/><rect x="38" y="31" width="2" height="1" fill="#c8a35e"/><rect x="40" y="31" width="2" height="1" fill="#86652a"/><rect x="42" y="31" width="1" height="1" fill="#1b130c" opacity="0.55"/><rect x="1" y="32" width="1" height="1" fill="#1b130c" opacity="0.55"/><rect x="2" y="32" width="2" height="1" fill="#ecd59a"/><rect x="4" y="32" width="2" height="1" fill="#c8a35e"/><rect x="6" y="32" width="2" height="1" fill="#1b130c"/><rect x="8" y="32" width="28" height="1" fill="#d9cfb2"/><rect x="36" y="32" width="2" height="1" fill="#1b130c"/><rect x="38" y="32" width="2" height="1" fill="#c8a35e"/><rect x="40" y="32" width="2" height="1" fill="#86652a"/><rect x="42" y="32" width="1" height="1" fill="#1b130c" opacity="0.55"/><rect x="1" y="33" width="1" height="1" fill="#1b130c" opacity="0.55"/><rect x="2" y="33" width="2" height="1" fill="#ecd59a"/><rect x="4" y="33" width="2" height="1" fill="#c8a35e"/><rect x="6" y="33" width="2" height="1" fill="#1b130c"/><rect x="8" y="33" width="28" height="1" fill="#d9cfb2"/><rect x="36" y="33" width="2" height="1" fill="#1b130c"/><rect x="38" y="33" width="2" height="1" fill="#c8a35e"/><rect x="40" y="33" width="2" height="1" fill="#86652a"/><rect x="42" y="33" width="1" height="1" fill="#1b130c" opacity="0.55"/><rect x="1" y="34" width="1" height="1" fill="#1b130c" opacity="0.55"/><rect x="2" y="34" width="2" height="1" fill="#ecd59a"/><rect x="4" y="34" width="2" height="1" fill="#c8a35e"/><rect x="6" y="34" width="32" height="1" fill="#1b130c"/><rect x="38" y="34" width="2" height="1" fill="#c8a35e"/><rect x="40" y="34" width="2" height="1" fill="#86652a"/><rect x="42" y="34" width="1" height="1" fill="#1b130c" opacity="0.55"/><rect x="1" y="35" width="1" height="1" fill="#1b130c" opacity="0.55"/><rect x="2" y="35" width="2" height="1" fill="#ecd59a"/><rect x="4" y="35" width="2" height="1" fill="#c8a35e"/><rect x="6" y="35" width="32" height="1" fill="#1b130c"/><rect x="38" y="35" width="2" height="1" fill="#c8a35e"/><rect x="40" y="35" width="2" height="1" fill="#86652a"/><rect x="42" y="35" width="1" height="1" fill="#1b130c" opacity="0.55"/><rect x="1" y="36" width="1" height="1" fill="#1b130c" opacity="0.55"/><rect x="2" y="36" width="2" height="1" fill="#ecd59a"/><rect x="4" y="36" width="36" height="1" fill="#c8a35e"/><rect x="40" y="36" width="2" height="1" fill="#86652a"/><rect x="42" y="36" width="1" height="1" fill="#1b130c" opacity="0.55"/><rect x="1" y="37" width="1" height="1" fill="#1b130c" opacity="0.55"/><rect x="2" y="37" width="2" height="1" fill="#ecd59a"/><rect x="4" y="37" width="36" height="1" fill="#c8a35e"/><rect x="40" y="37" width="2" height="1" fill="#86652a"/><rect x="42" y="37" width="1" height="1" fill="#1b130c" opacity="0.55"/><rect x="1" y="38" width="1" height="1" fill="#1b130c" opacity="0.55"/><rect x="2" y="38" width="40" height="1" fill="#86652a"/><rect x="42" y="38" width="1" height="1" fill="#1b130c" opacity="0.55"/><rect x="1" y="39" width="1" height="1" fill="#1b130c" opacity="0.55"/><rect x="2" y="39" width="40" height="1" fill="#86652a"/><rect x="42" y="39" width="1" height="1" fill="#1b130c" opacity="0.55"/><rect x="1" y="40" width="42" height="1" fill="#1b130c" opacity="0.55"/></svg>