<svg xmlns="http://www.w3.org/2000/svg" viewBox="0 0 22 21" width="88" height="84" shape-rendering="crispEdges"><rect x="0" y="0" width="22" height="1" fill="#1b130c"/><rect x="0" y="1" width="1" height="1" fill="#1b130c"/><rect x="1" y="1" width="20" height="1" fill="#ecd59a"/><rect x="21" y="1" width="1" height="1" fill="#1b130c"/><rect x="0" y="2" width="1" height="1" fill="#1b130c"/><rect x="1" y="2" width="1" height="1" fill="#ecd59a"/><rect x="2" y="2" width="18" height="1" fill="#c8a35e"/><rect x="20" y="2" width="1" height="1" fill="#86652a"/><rect x="21" y="2" width="1" height="1" fill="#1b130c"/><rect x="0" y="3" width="1" height="1" fill="#1b130c"/><rect x="1" y="3" width="1" height="1" fill="#ecd59a"/><rect x="2" y="3" width="1" height="1" fill="#c8a35e"/><rect x="3" y="3" width="16" height="1" fill="#1b130c"/><rect x="19" y="3" width="1" height="1" fill="#c8a35e"/><rect x="20" y="3" width="1" height="1" fill="#86652a"/><rect x="21" y="3" width="1" height="1" fill="#1b130c"/><rect x="0" y="4" width="1" height="1" fill="#1b130c"/><rect x="1" y="4" width="1" height="1" fill="#ecd59a"/><rect x="2" y="4" width="1" height="1" fill="#c8a35e"/><rect x="3" y="4" width="1" height="1" fill="#1b130c"/><rect x="4" y="4" width="12" height="1" fill="#7c5ea8"/><rect x="16" y="4" width="1" height="1" fill="#e3b23c"/><rect x="17" y="4" width="1" height="1" fill="#7c5ea8"/><rect x="18" y="4" width="1" height="1" fill="#1b130c"/><rect x="19" y="4" width="1" height="1" fill="#c8a35e"/><rect x="20" y="4" width="1" height="1" fill="#86652a"/><rect x="21" y="4" width="1" height="1" fill="#1b130c"/><rect x="0" y="5" width="1" height="1" fill="#1b130c"/><rect x="1" y="5" width="1" height="1" fill="#ecd59a"/><rect x="2" y="5" width="1" height="1" fill="#c8a35e"/><rect x="3" y="5" width="1" height="1" fill="#1b130c"/><rect x="4" y="5" width="5" height="1" fill="#7c5ea8"/><rect x="9" y="5" width="4" height="1" fill="#1b130c"/><rect x="13" y="5" width="2" height="1" fill="#7c5ea8"/><rect x="15" y="5" width="3" height="1" fill="#e3b23c"/><rect x="18" y="5" width="1" height="1" fill="#1b130c"/><rect x="19" y="5" width="1" height="1" fill="#c8a35e"/><rect x="20" y="5" width="1" height="1" fill="#86652a"/><rect x="21" y="5" width="1" height="1" fill="#1b130c"/><rect x="0" y="6" width="1" height="1" fill="#1b130c"/><rect x="1" y="6" width="1" height="1" fill="#ecd59a"/><rect x="2" y="6" width="1" height="1" fill="#c8a35e"/><rect x="3" y="6" width="1" height="1" fill="#1b130c"/><rect x="4" y="6" width="4" height="1" fill="#7c5ea8"/><rect x="8" y="6" width="1" height="1" fill="#1b130c"/><rect x="9" y="6" width="4" height="1" fill="#b8dde2"/><rect x="13" y="6" width="1" height="1" fill="#1b130c"/><rect x="14" y="6" width="2" height="1" fill="#7c5ea8"/><rect x="16" y="6" width="1" height="1" fill="#e3b23c"/><rect x="17" y="6" width="1" height="1" fill="#7c5ea8"/><rect x="18" y="6" width="1" height="1" fill="#1b130c"/><rect x="19" y="6" width="1" height="1" fill="#c8a35e"/><rect x="20" y="6" width="1" height="1" fill="#86652a"/><rect x="21" y="6" width="1" height="1" fill="#1b130c"/><rect x="0" y="7" width="1" height="1" fill="#1b130c"/><rect x="1" y="7" width="1" height="1" fill="#ecd59a"/><rect x="2" y="7" width="1" height="1" fill="#c8a35e"/><rect x="3" y="7" width="1" height="1" fill="#1b130c"/><rect x="4" y="7" width="3" height="1" fill="#7c5ea8"/><rect x="7" y="7" width="1" height="1" fill="#1b130c"/><rect x="8" y="7" width="6" height="1" fill="#b8dde2"/><rect x="14" y="7" width="1" height="1" fill="#1b130c"/><rect x="15" y="7" width="3" height="1" fill="#7c5ea8"/><rect x="18" y="7" width="1" height="1" fill="#1b130c"/><rect x="19" y="7" width="1" height="1" fill="#c8a35e"/><rect x="20" y="7" width="1" height="1" fill="#86652a"/><rect x="21" y="7" width="1" height="1" fill="#1b130c"/><rect x="0" y="8" width="1" height="1" fill="#1b130c"/><rect x="1" y="8" width="1" height="1" fill="#ecd59a"/><rect x="2" y="8" width="1" height="1" fill="#c8a35e"/><rect x="3" y="8" width="1" height="1" fill="#1b130c"/><rect x="4" y="8" width="3" height="1" fill="#7c5ea8"/><rect x="7" y="8" width="1" height="1" fill="#1b130c"/><rect x="8" y="8" width="1" height="1" fill="#b8dde2"/><rect x="9" y="8" width="1" height="1" fill="#1b130c"/><rect x="10" y="8" width="2" height="1" fill="#d9cfb2"/><rect x="12" y="8" width="1" height="1" fill="#1b130c"/><rect x="13" y="8" width="1" height="1" fill="#b8dde2"/><rect x="14" y="8" width="1" height="1" fill="#1b130c"/><rect x="15" y="8" width="3" height="1" fill="#7c5ea8"/><rect x="18" y="8" width="1" height="1" fill="#1b130c"/><rect x="19" y="8" width="1" height="1" fill="#c8a35e"/><rect x="20" y="8" width="1" height="1" fill="#86652a"/><rect x="21" y="8" width="1" height="1" fill="#1b130c"/><rect x="0" y="9" width="1" height="1" fill="#1b130c"/><rect x="1" y="9" width="1" height="1" fill="#ecd59a"/><rect x="2" y="9" width="1" height="1" fill="#c8a35e"/><rect x="3" y="9" width="1" height="1" fill="#1b130c"/><rect x="4" y="9" width="3" height="1" fill="#7c5ea8"/><rect x="7" y="9" width="1" height="1" fill="#1b130c"/><rect x="8" y="9" width="1" height="1" fill="#b8dde2"/><rect x="9" y="9" width="4" height="1" fill="#d9cfb2"/><rect x="13" y="9" width="1" height="1" fill="#b8dde2"/><rect x="14" y="9" width="1" height="1" fill="#1b130c"/><rect x="15" y="9" width="3" height="1" fill="#7c5ea8"/><rect x="18" y="9" width="1" height="1" fill="#1b130c"/><rect x="19" y="9" width="1" height="1" fill="#c8a35e"/><rect x="20" y="9" width="1" height="1" fill="#86652a"/><rect x="21" y="9" width="1" height="1" fill="#1b130c"/><rect x="0" y="10" width="1" height="1" fill="#1b130c"/><rect x="1" y="10" width="1" height="1" fill="#ecd59a"/><rect x="2" y="10" width="1" height="1" fill="#c8a35e"/><rect x="3" y="10" width="1" height="1" fill="#1b130c"/><rect x="4" y="10" width="4" height="1" fill="#7c5ea8"/><rect x="8" y="10" width="1" height="1" fill="#1b130c"/><rect x="9" y="10" width="4" height="1" fill="#d9cfb2"/><rect x="13" y="10" width="1" height="1" fill="#1b130c"/><rect x="14" y="10" width="4" height="1" fill="#7c5ea8"/><rect x="18" y="10" width="1" height="1" fill="#1b130c"/><rect x="19" y="10" width="1" height="1" fill="#c8a35e"/><rect x="20" y="10" width="1" height="1" fill="#86652a"/><rect x="21" y="10" width="1" height="1" fill="#1b130c"/><rect x="0" y="11" width="1" height="1" fill="#1b130c"/><rect x="1" y="11" width="1" height="1" fill="#ecd59a"/><rect x="2" y="11" width="1" height="1" fill="#c8a35e"/><rect x="3" y="11" width="1" height="1" fill="#1b130c"/><rect x="4" y="11" width="3" height="1" fill="#7c5ea8"/><rect x="7" y="11" width="1" height="1" fill="#a8322f"/><rect x="8" y="11" width="2" height="1" fill="#1b130c"/><rect x="10" y="11" width="2" height="1" fill="#d9cfb2"/><rect x="12" y="11" width="2" height="1" fill="#1b130c"/><rect x="14" y="11" width="1" height="1" fill="#a8322f"/><rect x="15" y="11" width="3" height="1" fill="#7c5ea8"/><rect x="18" y="11" width="1" height="1" fill="#1b130c"/><rect x="19" y="11" width="1" height="1" fill="#c8a35e"/><rect x="20" y="11" width="1" height="1" fill="#86652a"/><rect x="21" y="11" width="1" height="1" fill="#1b130c"/><rect x="0" y="12" width="1" height="1" fill="#1b130c"/><rect x="1" y="12" width="1" height="1" fill="#ecd59a"/><rect x="2" y="12" width="1" height="1" fill="#c8a35e"/><rect x="3" y="12" width="1" height="1" fill="#1b130c"/><rect x="4" y="12" width="2" height="1" fill="#7c5ea8"/><rect x="6" y="12" width="2" height="1" fill="#a8322f"/><rect x="8" y="12" width="6" height="1" fill="#6f9ea6"/><rect x="14" y="12" width="2" height="1" fill="#a8322f"/><rect x="16" y="12" width="2" height="1" fill="#7c5ea8"/><rect x="18" y="12" width="1" height="1" fill="#1b130c"/><rect x="19" y="12" width="1" height="1" fill="#c8a35e"/><rect x="20" y="12" width="1" height="1" fill="#86652a"/><rect x="21" y="12" width="1" height="1" fill="#1b130c"/><rect x="0" y="13" width="1" height="1" fill="#1b130c"/><rect x="1" y="13" width="1" height="1" fill="#ecd59a"/><rect x="2" y="13" width="1" height="1" fill="#c8a35e"/><rect x="3" y="13" width="1" height="1" fill="#1b130c"/><rect x="4" y="13" width="1" height="1" fill="#7c5ea8"/><rect x="5" y="13" width="2" height="1" fill="#a8322f"/><rect x="7" y="13" width="3" height="1" fill="#6f9ea6"/><rect x="10" y="13" width="2" height="1" fill="#b8dde2"/><rect x="12" y="13" width="3" height="1" fill="#6f9ea6"/><rect x="15" y="13" width="2" height="1" fill="#a8322f"/><rect x="17" y="13" width="1" height="1" fill="#7c5ea8"/><rect x="18" y="13" width="1" height="1" fill="#1b130c"/><rect x="19" y="13" width="1" height="1" fill="#c8a35e"/><rect x="20" y="13" width="1" height="1" fill="#86652a"/><rect x="21" y="13" width="1" height="1" fill="#1b130c"/><rect x="0" y="14" width="1" height="1" fill="#1b130c"/><rect x="1" y="14" width="1" height="1" fill="#ecd59a"/><rect x="2" y="14" width="1" height="1" fill="#c8a35e"/><rect x="3" y="14" width="1" height="1" fill="#1b130c"/><rect x="4" y="14" width="1" height="1" fill="#7c5ea8"/><rect x="5" y="14" width="1" height="1" fill="#a8322f"/><rect x="6" y="14" width="1" height="1" fill="#dc5d55"/><rect x="7" y="14" width="8" height="1" fill="#6f9ea6"/><rect x="15" y="14" width="1" height="1" fill="#dc5d55"/><rect x="16" y="14" width="1" height="1" fill="#a8322f"/><rect x="17" y="14" width="1" height="1" fill="#7c5ea8"/><rect x="18" y="14" width="1" height="1" fill="#1b130c"/><rect x="19" y="14" width="1" height="1" fill="#c8a35e"/><rect x="20" y="14" width="1" height="1" fill="#86652a"/><rect x="21" y="14" width="1" height="1" fill="#1b130c"/><rect x="0" y="15" width="1" height="1" fill="#1b130c"/><rect x="1" y="15" width="1" height="1" fill="#ecd59a"/><rect x="2" y="15" width="1" height="1" fill="#c8a35e"/><rect x="3" y="15" width="1" height="1" fill="#1b130c"/><rect x="4" y="15" width="1" height="1" fill="#7c5ea8"/><rect x="5" y="15" width="1" height="1" fill="#a8322f"/><rect x="6" y="15" width="1" height="1" fill="#dc5d55"/><rect x="7" y="15" width="8" height="1" fill="#6f9ea6"/><rect x="15" y="15" width="1" height="1" fill="#dc5d55"/><rect x="16" y="15" width="1" height="1" fill="#a8322f"/><rect x="17" y="15" width="1" height="1" fill="#7c5ea8"/><rect x="18" y="15" width="1" height="1" fill="#1b130c"/><rect x="19" y="15" width="1" height="1" fill="#c8a35e"/><rect x="20" y="15" width="1" height="1" fill="#86652a"/><rect x="21" y="15" width="1" height="1" fill="#1b130c"/><rect x="0" y="16" width="1" height="1" fill="#1b130c"/><rect x="1" y="16" width="1" height="1" fill="#ecd59a"/><rect x="2" y="16" width="1" height="1" fill="#c8a35e"/><rect x="3" y="16" width="1" height="1" fill="#1b130c"/><rect x="4" y="16" width="2" height="1" fill="#2a1c12"/><rect x="6" y="16" width="10" height="1" fill="#c8a35e"/><rect x="16" y="16" width="2" height="1" fill="#2a1c12"/><rect x="18" y="16" width="1" height="1" fill="#1b130c"/><rect x="19" y="16" width="1" height="1" fill="#c8a35e"/><rect x="20" y="16" width="1" height="1" fill="#86652a"/><rect x="21" y="16" width="1" height="1" fill="#1b130c"/><rect x="0" y="17" width="1" height="1" fill="#1b130c"/><rect x="1" y="17" width="1" height="1" fill="#ecd59a"/><rect x="2" y="17" width="1" height="1" fill="#c8a35e"/><rect x="3" y="17" width="16" height="1" fill="#1b130c"/><rect x="19" y="17" width="1" height="1" fill="#c8a35e"/><rect x="20" y="17" width="1" height="1" fill="#86652a"/><rect x="21" y="17" width="1" height="1" fill="#1b130c"/><rect x="0" y="18" width="1" height="1" fill="#1b130c"/><rect x="1" y="18" width="1" height="1" fill="#ecd59a"/><rect x="2" y="18" width="18" height="1" fill="#c8a35e"/><rect x="20" y="18" width="1" height="1" fill="#86652a"/><rect x="21" y="18" width="1" height="1" fill="#1b130c"/><rect x="0" y="19" width="1" height="1" fill="#1b130c"/><rect x="1" y="19" width="20" height="1" fill="#86652a"/><rect x="21" y="19" width="1" height="1" fill="#1b130c"/><rect x="0" y="20" width="22" height="1" fill="#1b130c"/></svg>