<svg xmlns="http://www.w3.org/2000/svg" viewBox="0 0 52 50" width="104" height="100" shape-rendering="crispEdges"><rect x="23" y="1" width="16" height="1" fill="#1b130c" opacity="0.55"/><rect x="23" y="2" width="1" height="1" fill="#1b130c" opacity="0.55"/><rect x="24" y="2" width="14" height="1" fill="#7fb069"/><rect x="38" y="2" width="1" height="1" fill="#1b130c" opacity="0.55"/><rect x="23" y="3" width="1" height="1" fill="#1b130c" opacity="0.55"/><rect x="24" y="3" width="14" height="1" fill="#7fb069"/><rect x="38" y="3" width="1" height="1" fill="#1b130c" opacity="0.55"/><rect x="23" y="4" width="1" height="1" fill="#1b130c" opacity="0.55"/><rect x="24" y="4" width="12" height="1" fill="#ecd59a"/><rect x="36" y="4" width="2" height="1" fill="#d98a3d"/><rect x="38" y="4" width="1" height="1" fill="#1b130c" opacity="0.55"/><rect x="9" y="5" width="15" height="1" fill="#1b130c" opacity="0.55"/><rect x="24" y="5" width="12" height="1" fill="#ecd59a"/><rect x="36" y="5" width="2" height="1" fill="#d98a3d"/><rect x="38" y="5" width="1" height="1" fill="#1b130c" opacity="0.55"/><rect x="9" y="6" width="1" height="1" fill="#1b130c" opacity="0.55"/><rect x="10" y="6" width="12" height="1" fill="#ecd59a"/><rect x="22" y="6" width="2" height="1" fill="#1b130c" opacity="0.55"/><rect x="24" y="6" width="12" height="1" fill="#ecd59a"/><rect x="36" y="6" width="2" height="1" fill="#d98a3d"/><rect x="38" y="6" width="1" height="1" fill="#1b130c" opacity="0.55"/><rect x="9" y="7" width="1" height="1" fill="#1b130c" opacity="0.55"/><rect x="10" y="7" width="12" height="1" fill="#ecd59a"/><rect x="22" y="7" width="2" height="1" fill="#1b130c" opacity="0.55"/><rect x="24" y="7" width="12" height="1" fill="#ecd59a"/><rect x="36" y="7" width="2" height="1" fill="#d98a3d"/><rect x="38" y="7" width="1" height="1" fill="#1b130c" opacity="0.55"/><rect x="9" y="8" width="1" height="1" fill="#1b130c" opacity="0.55"/><rect x="10" y="8" width="10" height="1" fill="#f4efe6"/><rect x="20" y="8" width="2" height="1" fill="#d9cfb2"/><rect x="22" y="8" width="2" height="1" fill="#1b130c" opacity="0.55"/><rect x="24" y="8" width="2" height="1" fill="#ecd59a"/><rect x="26" y="8" width="12" height="1" fill="#d98a3d"/><rect x="38" y="8" width="1" height="1" fill="#1b130c" opacity="0.55"/><rect x="9" y="9" width="1" height="1" fill="#1b130c" opacity="0.55"/><rect x="10" y="9" width="10" height="1" fill="#f4efe6"/><rect x="20" y="9" width="2" height="1" fill="#d9cfb2"/><rect x="22" y="9" width="2" height="1" fill="#1b130c" opacity="0.55"/><rect x="24" y="9" width="2" height="1" fill="#ecd59a"/><rect x="26" y="9" width="12" height="1" fill="#d98a3d"/><rect x="38" y="9" width="1" height="1" fill="#1b130c" opacity="0.55"/><rect x="9" y="10" width="1" height="1" fill="#1b130c" opacity="0.55"/><rect x="10" y="10" width="10" height="1" fill="#f4efe6"/><rect x="20" y="10" width="2" height="1" fill="#d9cfb2"/><rect x="22" y="10" width="2" height="1" fill="#1b130c" opacity="0.55"/><rect x="24" y="10" width="12" height="1" fill="#ecd59a"/><rect x="36" y="10" width="2" height="1" fill="#d98a3d"/><rect x="38" y="10" width="1" height="1" fill="#1b130c" opacity="0.55"/><rect x="9" y="11" width="1" height="1" fill="#1b130c" opacity="0.55"/><rect x="10" y="11" width="10" height="1" fill="#f4efe6"/><rect x="20" y="11" width="2" height="1" fill="#d9cfb2"/><rect x="22" y="11" width="2" height="1" fill="#1b130c" opacity="0.55"/><rect x="24" y="11" width="12" height="1" fill="#ecd59a"/><rect x="36" y="11" width="2" height="1" fill="#d98a3d"/><rect x="38" y="11" width="1" height="1" fill="#1b130c" opacity="0.55"/><rect x="9" y="12" width="1" height="1" fill="#1b130c" opacity="0.55"/><rect x="10" y="12" width="2" height="1" fill="#f4efe6"/><rect x="12" y="12" width="8" height="1" fill="#7fb069"/><rect x="20" y="12" width="2" height="1" fill="#d9cfb2"/><rect x="22" y="12" width="2" height="1" fill="#1b130c" opacity="0.55"/><rect x="24" y="12" width="2" height="1" fill="#ecd59a"/><rect x="26" y="12" width="8" height="1" fill="#e3b23c"/><rect x="34" y="12" width="2" height="1" fill="#ecd59a"/><rect x="36" y="12" width="2" height="1" fill="#d98a3d"/><rect x="38" y="12" width="1" height="1" fill="#1b130c" opacity="0.55"/><rect x="9" y="13" width="1" height="1" fill="#1b130c" opacity="0.55"/><rect x="10" y="13" width="2" height="1" fill="#f4efe6"/><rect x="12" y="13" width="8" height="1" fill="#7fb069"/><rect x="20" y="13" width="2" height="1" fill="#d9cfb2"/><rect x="22" y="13" width="2" height="1" fill="#1b130c" opacity="0.55"/><rect x="24" y="13" width="2" height="1" fill="#ecd59a"/><rect x="26" y="13" width="8" height="1" fill="#e3b23c"/><rect x="34" y="13" width="2" height="1" fill="#ecd59a"/><rect x="36" y="13" width="2" height="1" fill="#d98a3d"/><rect x="38" y="13" width="1" height="1" fill="#1b130c" opacity="0.55"/><rect x="9" y="14" width="1" height="1" fill="#1b130c" opacity="0.55"/><rect x="10" y="14" width="10" height="1" fill="#f4efe6"/><rect x="20" y="14" width="2" height="1" fill="#d9cfb2"/><rect x="22" y="14" width="2" height="1" fill="#1b130c" opacity="0.55"/><rect x="24" y="14" width="12" height="1" fill="#ecd59a"/><rect x="36" y="14" width="2" height="1" fill="#d98a3d"/><rect x="38" y="14" width="1" height="1" fill="#1b130c" opacity="0.55"/><rect x="9" y="15" width="1" height="1" fill="#1b130c" opacity="0.55"/><rect x="10" y="15" width="10" height="1" fill="#f4efe6"/><rect x="20" y="15" width="2" height="1" fill="#d9cfb2"/><rect x="22" y="15" width="2" height="1" fill="#1b130c" opacity="0.55"/><rect x="24" y="15" width="12" height="1" fill="#ecd59a"/><rect x="36" y="15" width="2" height="1" fill="#d98a3d"/><rect x="38" y="15" width="1" height="1" fill="#1b130c" opacity="0.55"/><rect x="9" y="16" width="1" height="1" fill="#1b130c" opacity="0.55"/><rect x="10" y="16" width="2" height="1" fill="#f4efe6"/><rect x="12" y="16" width="6" height="1" fill="#d9cfb2"/><rect x="18" y="16" width="2" height="1" fill="#f4efe6"/><rect x="20" y="16" width="2" height="1" fill="#d9cfb2"/><rect x="22" y="16" width="2" height="1" fill="#1b130c" opacity="0.55"/><rect x="24" y="16" width="12" height="1" fill="#ecd59a"/><rect x="36" y="16" width="2" height="1" fill="#d98a3d"/><rect x="38" y="16" width="1" height="1" fill="#1b130c" opacity="0.55"/><rect x="9" y="17" width="1" height="1" fill="#1b130c" opacity="0.55"/><rect x="10" y="17" width="2" height="1" fill="#f4efe6"/><rect x="12" y="17" width="6" height="1" fill="#d9cfb2"/><rect x="18" y="17" width="2" height="1" fill="#f4efe6"/><rect x="20" y="17" width="2" height="1" fill="#d9cfb2"/><rect x="22" y="17" width="2" height="1" fill="#1b130c" opacity="0.55"/><rect x="24" y="17" width="12" height="1" fill="#ecd59a"/><rect x="36" y="17" width="2" height="1" fill="#d98a3d"/><rect x="38" y="17" width="1" height="1" fill="#1b130c" opacity="0.55"/><rect x="9" y="18" width="1" height="1" fill="#1b130c" opacity="0.55"/><rect x="10" y="18" width="10" height="1" fill="#f4efe6"/><rect x="20" y="18" width="2" height="1" fill="#d9cfb2"/><rect x="22" y="18" width="2" height="1" fill="#1b130c" opacity="0.55"/><rect x="24" y="18" width="12" height="1" fill="#ecd59a"/><rect x="36" y="18" width="2" height="1" fill="#d98a3d"/><rect x="38" y="18" width="1" height="1" fill="#1b130c" opacity="0.55"/><rect x="9" y="19" width="1" height="1" fill="#1b130c" opacity="0.55"/><rect x="10" y="19" width="10" height="1" fill="#f4efe6"/><rect x="20" y="19" width="2" height="1" fill="#d9cfb2"/><rect x="22" y="19" width="2" height="1" fill="#1b130c" opacity="0.55"/><rect x="24" y="19" width="12" height="1" fill="#ecd59a"/><rect x="36" y="19" width="2" height="1" fill="#d98a3d"/><rect x="38" y="19" width="1" height="1" fill="#1b130c" opacity="0.55"/><rect x="9" y="20" width="1" height="1" fill="#1b130c" opacity="0.55"/><rect x="10" y="20" width="10" height="1" fill="#f4efe6"/><rect x="20" y="20" width="2" height="1" fill="#d9cfb2"/><rect x="22" y="20" width="2" height="1" fill="#1b130c" opacity="0.55"/><rect x="24" y="20" width="12" height="1" fill="#ecd59a"/><rect x="36" y="20" width="2" height="1" fill="#d98a3d"/><rect x="38" y="20" width="1" height="1" fill="#1b130c" opacity="0.55"/><rect x="3" y="21" width="7" height="1" fill="#1b130c" opacity="0.55"/><rect x="10" y="21" width="10" height="1" fill="#f4efe6"/><rect x="20" y="21" width="2" height="1" fill="#d9cfb2"/><rect x="22" y="21" width="2" height="1" fill="#1b130c" opacity="0.55"/><rect x="24" y="21" width="12" height="1" fill="#ecd59a"/><rect x="36" y="21" width="2" height="1" fill="#d98a3d"/><rect x="38" y="21" width="11" height="1" fill="#1b130c" opacity="0.55"/><rect x="3" y="22" width="1" height="1" fill="#1b130c" opacity="0.55"/><rect x="4" y="22" width="44" height="1" fill="#dc5d55"/><rect x="48" y="22" width="1" height="1" fill="#1b130c" opacity="0.55"/><rect x="3" y="23" width="1" height="1" fill="#1b130c" opacity="0.55"/><rect x="4" y="23" width="44" height="1" fill="#dc5d55"/><rect x="48" y="23" width="1" height="1" fill="#1b130c" opacity="0.55"/><rect x="3" y="24" width="1" height="1" fill="#1b130c" opacity="0.55"/><rect x="4" y="24" width="2" height="1" fill="#dc5d55"/><rect x="6" y="24" width="40" height="1" fill="#a8322f"/><rect x="46" y="24" width="2" height="1" fill="#62201c"/><rect x="48" y="24" width="1" height="1" fill="#1b130c" opacity="0.55"/><rect x="3" y="25" width="1" height="1" fill="#1b130c" opacity="0.55"/><rect x="4" y="25" width="2" height="1" fill="#dc5d55"/><rect x="6" y="25" width="40" height="1" fill="#a8322f"/><rect x="46" y="25" width="2" height="1" fill="#62201c"/><rect x="48" y="25" width="1" height="1" fill="#1b130c" opacity="0.55"/><rect x="3" y="26" width="1" height="1" fill="#1b130c" opacity="0.55"/><rect x="4" y="26" width="2" height="1" fill="#dc5d55"/><rect x="6" y="26" width="40" height="1" fill="#a8322f"/><rect x="46" y="26" width="2" height="1" fill="#62201c"/><rect x="48" y="26" width="1" height="1" fill="#1b130c" opacity="0.55"/><rect x="3" y="27" width="1" height="1" fill="#1b130c" opacity="0.55"/><rect x="4" y="27" width="2" height="1" fill="#dc5d55"/><rect x="6" y="27" width="40" height="1" fill="#a8322f"/><rect x="46" y="27" width="2" height="1" fill="#62201c"/><rect x="48" y="27" width="1" height="1" fill="#1b130c" opacity="0.55"/><rect x="3" y="28" width="1" height="1" fill="#1b130c" opacity="0.55"/><rect x="4" y="28" width="2" height="1" fill="#dc5d55"/><rect x="6" y="28" width="40" height="1" fill="#e3b23c"/><rect x="46" y="28" width="2" height="1" fill="#62201c"/><rect x="48" y="28" width="1" height="1" fill="#1b130c" opacity="0.55"/><rect x="3" y="29" width="1" height="1" fill="#1b130c" opacity="0.55"/><rect x="4" y="29" width="2" height="1" fill="#dc5d55"/><rect x="6" y="29" width="40" height="1" fill="#e3b23c"/><rect x="46" y="29" width="2" height="1" fill="#62201c"/><rect x="48" y="29" width="1" height="1" fill="#1b130c" opacity="0.55"/><rect x="3" y="30" width="1" height="1" fill="#1b130c" opacity="0.55"/><rect x="4" y="30" width="2" height="1" fill="#dc5d55"/><rect x="6" y="30" width="40" height="1" fill="#a8322f"/><rect x="46" y="30" width="2" height="1" fill="#62201c"/><rect x="48" y="30" width="1" height="1" fill="#1b130c" opacity="0.55"/><rect x="3" y="31" width="1" height="1" fill="#1b130c" opacity="0.55"/><rect x="4" y="31" width="2" height="1" fill="#dc5d55"/><rect x="6" y="31" width="40" height="1" fill="#a8322f"/><rect x="46" y="31" width="2" height="1" fill="#62201c"/><rect x="48" y="31" width="1" height="1" fill="#1b130c" opacity="0.55"/><rect x="3" y="32" width="1" height="1" fill="#1b130c" opacity="0.55"/><rect x="4" y="32" width="2" height="1" fill="#dc5d55"/><rect x="6" y="32" width="10" height="1" fill="#a8322f"/><rect x="16" y="32" width="20" height="1" fill="#f4efe6"/><rect x="36" y="32" width="10" height="1" fill="#a8322f"/><rect x="46" y="32" width="2" height="1" fill="#62201c"/><rect x="48" y="32" width="1" height="1" fill="#1b130c" opacity="0.55"/><rect x="3" y="33" width="1" height="1" fill="#1b130c" opacity="0.55"/><rect x="4" y="33" width="2" height="1" fill="#dc5d55"/><rect x="6" y="33" width="10" height="1" fill="#a8322f"/><rect x="16" y="33" width="20" height="1" fill="#f4efe6"/><rect x="36" y="33" width="10" height="1" fill="#a8322f"/><rect x="46" y="33" width="2" height="1" fill="#62201c"/><rect x="48" y="33" width="1" height="1" fill="#1b130c" opacity="0.55"/><rect x="3" y="34" width="1" height="1" fill="#1b130c" opacity="0.55"/><rect x="4" y="34" width="2" height="1" fill="#dc5d55"/><rect x="6" y="34" width="10" height="1" fill="#a8322f"/><rect x="16" y="34" width="2" height="1" fill="#f4efe6"/><rect x="18" y="34" width="2" height="1" fill="#a8322f"/><rect x="20" y="34" width="4" height="1" fill="#f4efe6"/><rect x="24" y="34" width="2" height="1" fill="#a8322f"/><rect x="26" y="34" width="4" height="1" fill="#f4efe6"/><rect x="30" y="34" width="2" height="1" fill="#a8322f"/><rect x="32" y="34" width="4" height="1" fill="#f4efe6"/><rect x="36" y="34" width="10" height="1" fill="#a8322f"/><rect x="46" y="34" width="2" height="1" fill="#62201c"/><rect x="48" y="34" width="1" height="1" fill="#1b130c" opacity="0.55"/><rect x="3" y="35" width="1" height="1" fill="#1b130c" opacity="0.55"/><rect x="4" y="35" width="2" height="1" fill="#dc5d55"/><rect x="6" y="35" width="10" height="1" fill="#a8322f"/><rect x="16" y="35" width="2" height="1" fill="#f4efe6"/><rect x="18" y="35" width="2" height="1" fill="#a8322f"/><rect x="20" y="35" width="4" height="1" fill="#f4efe6"/><rect x="24" y="35" width="2" height="1" fill="#a8322f"/><rect x="26" y="35" width="4" height="1" fill="#f4efe6"/><rect x="30" y="35" width="2" height="1" fill="#a8322f"/><rect x="32" y="35" width="4" height="1" fill="#f4efe6"/><rect x="36" y="35" width="10" height="1" fill="#a8322f"/><rect x="46" y="35" width="2" height="1" fill="#62201c"/><rect x="48" y="35" width="1" height="1" fill="#1b130c" opacity="0.55"/><rect x="3" y="36" width="1" height="1" fill="#1b130c" opacity="0.55"/><rect x="4" y="36" width="2" height="1" fill="#dc5d55"/><rect x="6" y="36" width="10" height="1" fill="#a8322f"/><rect x="16" y="36" width="20" height="1" fill="#f4efe6"/><rect x="36" y="36" width="10" height="1" fill="#a8322f"/><rect x="46" y="36" width="2" height="1" fill="#62201c"/><rect x="48" y="36" width="1" height="1" fill="#1b130c" opacity="0.55"/><rect x="3" y="37" width="1" height="1" fill="#1b130c" opacity="0.55"/><rect x="4" y="37" width="2" height="1" fill="#dc5d55"/><rect x="6" y="37" width="10" height="1" fill="#a8322f"/><rect x="16" y="37" width="20" height="1" fill="#f4efe6"/><rect x="36" y="37" width="10" height="1" fill="#a8322f"/><rect x="46" y="37" width="2" height="1" fill="#62201c"/><rect x="48" y="37" width="1" height="1" fill="#1b130c" opacity="0.55"/><rect x="3" y="38" width="1" height="1" fill="#1b130c" opacity="0.55"/><rect x="4" y="38" width="2" height="1" fill="#dc5d55"/><rect x="6" y="38" width="40" height="1" fill="#a8322f"/><rect x="46" y="38" width="2" height="1" fill="#62201c"/><rect x="48" y="38" width="1" height="1" fill="#1b130c" opacity="0.55"/><rect x="3" y="39" width="1" height="1" fill="#1b130c" opacity="0.55"/><rect x="4" y="39" width="2" height="1" fill="#dc5d55"/><rect x="6" y="39" width="40" height="1" fill="#a8322f"/><rect x="46" y="39" width="2" height="1" fill="#62201c"/><rect x="48" y="39" width="1" height="1" fill="#1b130c" opacity="0.55"/><rect x="3" y="40" width="1" height="1" fill="#1b130c" opacity="0.55"/><rect x="4" y="40" width="2" height="1" fill="#dc5d55"/><rect x="6" y="40" width="40" height="1" fill="#e3b23c"/><rect x="46" y="40" width="2" height="1" fill="#62201c"/><rect x="48" y="40" width="1" height="1" fill="#1b130c" opacity="0.55"/><rect x="3" y="41" width="1" height="1" fill="#1b130c" opacity="0.55"/><rect x="4" y="41" width="2" height="1" fill="#dc5d55"/><rect x="6" y="41" width="40" height="1" fill="#e3b23c"/><rect x="46" y="41" width="2" height="1" fill="#62201c"/><rect x="48" y="41" width="1" height="1" fill="#1b130c" opacity="0.55"/><rect x="3" y="42" width="1" height="1" fill="#1b130c" opacity="0.55"/><rect x="4" y="42" width="2" height="1" fill="#dc5d55"/><rect x="6" y="42" width="40" height="1" fill="#a8322f"/><rect x="46" y="42" width="2" height="1" fill="#62201c"/><rect x="48" y="42" width="1" height="1" fill="#1b130c" opacity="0.55"/><rect x="3" y="43" width="1" height="1" fill="#1b130c" opacity="0.55"/><rect x="4" y="43" width="2" height="1" fill="#dc5d55"/><rect x="6" y="43" width="40" height="1" fill="#a8322f"/><rect x="46" y="43" width="2" height="1" fill="#62201c"/><rect x="48" y="43" width="1" height="1" fill="#1b130c" opacity="0.55"/><rect x="3" y="44" width="1" height="1" fill="#1b130c" opacity="0.55"/><rect x="4" y="44" width="44" height="1" fill="#62201c"/><rect x="48" y="44" width="1" height="1" fill="#1b130c" opacity="0.55"/><rect x="3" y="45" width="1" height="1" fill="#1b130c" opacity="0.55"/><rect x="4" y="45" width="44" height="1" fill="#62201c"/><rect x="48" y="45" width="1" height="1" fill="#1b130c" opacity="0.55"/><rect x="3" y="46" width="1" height="1" fill="#1b130c" opacity="0.55"/><rect x="4" y="46" width="44" height="1" fill="#1b130c"/><rect x="48" y="46" width="1" height="1" fill="#1b130c" opacity="0.55"/><rect x="3" y="47" width="1" height="1" fill="#1b130c" opacity="0.55"/><rect x="4" y="47" width="44" height="1" fill="#1b130c"/><rect x="48" y="47" width="1" height="1" fill="#1b130c" opacity="0.55"/><rect x="6" y="48" width="4" height="1" fill="#1b130c"/><rect x="42" y="48" width="4" height="1" fill="#1b130c"/><rect x="6" y="49" width="4" height="1" fill="#1b130c"/><rect x="42" y="49" width="4" height="1" fill="#1b130c"/></svg>