<svg xmlns="http://www.w3.org/2000/svg" viewBox="0 0 48 38" width="96" height="76" shape-rendering="crispEdges"><rect x="1" y="1" width="46" height="1" fill="#1b130c" opacity="0.55"/><rect x="1" y="2" width="1" height="1" fill="#1b130c" opacity="0.55"/><rect x="2" y="2" width="44" height="1" fill="#6f7d87"/><rect x="46" y="2" width="1" height="1" fill="#1b130c" opacity="0.55"/><rect x="1" y="3" width="1" height="1" fill="#1b130c" opacity="0.55"/><rect x="2" y="3" width="44" height="1" fill="#6f7d87"/><rect x="46" y="3" width="1" height="1" fill="#1b130c" opacity="0.55"/><rect x="1" y="4" width="1" height="1" fill="#1b130c" opacity="0.55"/><rect x="2" y="4" width="2" height="1" fill="#6f7d87"/><rect x="4" y="4" width="40" height="1" fill="#3a444c"/><rect x="44" y="4" width="2" height="1" fill="#20272d"/><rect x="46" y="4" width="1" height="1" fill="#1b130c" opacity="0.55"/><rect x="1" y="5" width="1" height="1" fill="#1b130c" opacity="0.55"/><rect x="2" y="5" width="2" height="1" fill="#6f7d87"/><rect x="4" y="5" width="40" height="1" fill="#3a444c"/><rect x="44" y="5" width="2" height="1" fill="#20272d"/><rect x="46" y="5" width="1" height="1" fill="#1b130c" opacity="0.55"/><rect x="1" y="6" width="1" height="1" fill="#1b130c" opacity="0.55"/><rect x="2" y="6" width="2" height="1" fill="#6f7d87"/><rect x="4" y="6" width="2" height="1" fill="#3a444c"/><rect x="6" y="6" width="34" height="1" fill="#1b130c"/><rect x="40" y="6" width="2" height="1" fill="#3a444c"/><rect x="42" y="6" width="4" height="1" fill="#20272d"/><rect x="46" y="6" width="1" height="1" fill="#1b130c" opacity="0.55"/><rect x="1" y="7" width="1" height="1" fill="#1b130c" opacity="0.55"/><rect x="2" y="7" width="2" height="1" fill="#6f7d87"/><rect x="4" y="7" width="2" height="1" fill="#3a444c"/><rect x="6" y="7" width="34" height="1" fill="#1b130c"/><rect x="40" y="7" width="2" height="1" fill="#3a444c"/><rect x="42" y="7" width="4" height="1" fill="#20272d"/><rect x="46" y="7" width="1" height="1" fill="#1b130c" opacity="0.55"/><rect x="1" y="8" width="1" height="1" fill="#1b130c" opacity="0.55"/><rect x="2" y="8" width="2" height="1" fill="#6f7d87"/><rect x="4" y="8" width="2" height="1" fill="#3a444c"/><rect x="6" y="8" width="2" height="1" fill="#1b130c"/><rect x="8" y="8" width="28" height="1" fill="#3a444c"/><rect x="36" y="8" width="2" height="1" fill="#1b130c"/><rect x="38" y="8" width="4" height="1" fill="#3a444c"/><rect x="42" y="8" width="4" height="1" fill="#20272d"/><rect x="46" y="8" width="1" height="1" fill="#1b130c" opacity="0.55"/><rect x="1" y="9" width="1" height="1" fill="#1b130c" opacity="0.55"/><rect x="2" y="9" width="2" height="1" fill="#6f7d87"/><rect x="4" y="9" width="2" height="1" fill="#3a444c"/><rect x="6" y="9" width="2" height="1" fill="#1b130c"/><rect x="8" y="9" width="28" height="1" fill="#3a444c"/><rect x="36" y="9" width="2" height="1" fill="#1b130c"/><rect x="38" y="9" width="4" height="1" fill="#3a444c"/><rect x="42" y="9" width="4" height="1" fill="#20272d"/><rect x="46" y="9" width="1" height="1" fill="#1b130c" opacity="0.55"/><rect x="1" y="10" width="1" height="1" fill="#1b130c" opacity="0.55"/><rect x="2" y="10" width="2" height="1" fill="#6f7d87"/><rect x="4" y="10" width="2" height="1" fill="#3a444c"/><rect x="6" y="10" width="2" height="1" fill="#1b130c"/><rect x="8" y="10" width="8" height="1" fill="#3a444c"/><rect x="16" y="10" width="8" height="1" fill="#c8a35e"/><rect x="24" y="10" width="10" height="1" fill="#3a444c"/><rect x="34" y="10" width="2" height="1" fill="#1b130c"/><rect x="36" y="10" width="6" height="1" fill="#3a444c"/><rect x="42" y="10" width="4" height="1" fill="#20272d"/><rect x="46" y="10" width="1" height="1" fill="#1b130c" opacity="0.55"/><rect x="1" y="11" width="1" height="1" fill="#1b130c" opacity="0.55"/><rect x="2" y="11" width="2" height="1" fill="#6f7d87"/><rect x="4" y="11" width="2" height="1" fill="#3a444c"/><rect x="6" y="11" width="2" height="1" fill="#1b130c"/><rect x="8" y="11" width="8" height="1" fill="#3a444c"/><rect x="16" y="11" width="8" height="1" fill="#c8a35e"/><rect x="24" y="11" width="10" height="1" fill="#3a444c"/><rect x="34" y="11" width="2" height="1" fill="#1b130c"/><rect x="36" y="11" width="6" height="1" fill="#3a444c"/><rect x="42" y="11" width="4" height="1" fill="#20272d"/><rect x="46" y="11" width="1" height="1" fill="#1b130c" opacity="0.55"/><rect x="1" y="12" width="1" height="1" fill="#1b130c" opacity="0.55"/><rect x="2" y="12" width="2" height="1" fill="#6f7d87"/><rect x="4" y="12" width="2" height="1" fill="#3a444c"/><rect x="6" y="12" width="2" height="1" fill="#1b130c"/><rect x="8" y="12" width="8" height="1" fill="#3a444c"/><rect x="16" y="12" width="2" height="1" fill="#c8a35e"/><rect x="18" y="12" width="4" height="1" fill="#ecd59a"/><rect x="22" y="12" width="2" height="1" fill="#c8a35e"/><rect x="24" y="12" width="8" height="1" fill="#3a444c"/><rect x="32" y="12" width="4" height="1" fill="#1b130c"/><rect x="36" y="12" width="2" height="1" fill="#3a444c"/><rect x="38" y="12" width="2" height="1" fill="#ecd59a"/><rect x="40" y="12" width="2" height="1" fill="#3a444c"/><rect x="42" y="12" width="4" height="1" fill="#20272d"/><rect x="46" y="12" width="1" height="1" fill="#1b130c" opacity="0.55"/><rect x="1" y="13" width="1" height="1" fill="#1b130c" opacity="0.55"/><rect x="2" y="13" width="2" height="1" fill="#6f7d87"/><rect x="4" y="13" width="2" height="1" fill="#3a444c"/><rect x="6" y="13" width="2" height="1" fill="#1b130c"/><rect x="8" y="13" width="8" height="1" fill="#3a444c"/><rect x="16" y="13" width="2" height="1" fill="#c8a35e"/><rect x="18" y="13" width="4" height="1" fill="#ecd59a"/><rect x="22" y="13" width="2" height="1" fill="#c8a35e"/><rect x="24" y="13" width="8" height="1" fill="#3a444c"/><rect x="32" y="13" width="4" height="1" fill="#1b130c"/><rect x="36" y="13" width="2" height="1" fill="#3a444c"/><rect x="38" y="13" width="2" height="1" fill="#ecd59a"/><rect x="40" y="13" width="2" height="1" fill="#3a444c"/><rect x="42" y="13" width="4" height="1" fill="#20272d"/><rect x="46" y="13" width="1" height="1" fill="#1b130c" opacity="0.55"/><rect x="1" y="14" width="1" height="1" fill="#1b130c" opacity="0.55"/><rect x="2" y="14" width="2" height="1" fill="#6f7d87"/><rect x="4" y="14" width="2" height="1" fill="#3a444c"/><rect x="6" y="14" width="2" height="1" fill="#1b130c"/><rect x="8" y="14" width="6" height="1" fill="#3a444c"/><rect x="14" y="14" width="2" height="1" fill="#c8a35e"/><rect x="16" y="14" width="2" height="1" fill="#ecd59a"/><rect x="18" y="14" width="4" height="1" fill="#c8a35e"/><rect x="22" y="14" width="2" height="1" fill="#ecd59a"/><rect x="24" y="14" width="2" height="1" fill="#c8a35e"/><rect x="26" y="14" width="6" height="1" fill="#3a444c"/><rect x="32" y="14" width="4" height="1" fill="#1b130c"/><rect x="36" y="14" width="2" height="1" fill="#3a444c"/><rect x="38" y="14" width="2" height="1" fill="#c8a35e"/><rect x="40" y="14" width="2" height="1" fill="#3a444c"/><rect x="42" y="14" width="4" height="1" fill="#20272d"/><rect x="46" y="14" width="1" height="1" fill="#1b130c" opacity="0.55"/><rect x="1" y="15" width="1" height="1" fill="#1b130c" opacity="0.55"/><rect x="2" y="15" width="2" height="1" fill="#6f7d87"/><rect x="4" y="15" width="2" height="1" fill="#3a444c"/><rect x="6" y="15" width="2" height="1" fill="#1b130c"/><rect x="8" y="15" width="6" height="1" fill="#3a444c"/><rect x="14" y="15" width="2" height="1" fill="#c8a35e"/><rect x="16" y="15" width="2" height="1" fill="#ecd59a"/><rect x="18" y="15" width="4" height="1" fill="#c8a35e"/><rect x="22" y="15" width="2" height="1" fill="#ecd59a"/><rect x="24" y="15" width="2" height="1" fill="#c8a35e"/><rect x="26" y="15" width="6" height="1" fill="#3a444c"/><rect x="32" y="15" width="4" height="1" fill="#1b130c"/><rect x="36" y="15" width="2" height="1" fill="#3a444c"/><rect x="38" y="15" width="2" height="1" fill="#c8a35e"/><rect x="40" y="15" width="2" height="1" fill="#3a444c"/><rect x="42" y="15" width="4" height="1" fill="#20272d"/><rect x="46" y="15" width="1" height="1" fill="#1b130c" opacity="0.55"/><rect x="1" y="16" width="1" height="1" fill="#1b130c" opacity="0.55"/><rect x="2" y="16" width="2" height="1" fill="#6f7d87"/><rect x="4" y="16" width="2" height="1" fill="#3a444c"/><rect x="6" y="16" width="2" height="1" fill="#1b130c"/><rect x="8" y="16" width="6" height="1" fill="#3a444c"/><rect x="14" y="16" width="2" height="1" fill="#c8a35e"/><rect x="16" y="16" width="2" height="1" fill="#ecd59a"/><rect x="18" y="16" width="2" height="1" fill="#c8a35e"/><rect x="20" y="16" width="2" height="1" fill="#86652a"/><rect x="22" y="16" width="2" height="1" fill="#ecd59a"/><rect x="24" y="16" width="2" height="1" fill="#c8a35e"/><rect x="26" y="16" width="6" height="1" fill="#3a444c"/><rect x="32" y="16" width="4" height="1" fill="#1b130c"/><rect x="36" y="16" width="2" height="1" fill="#3a444c"/><rect x="38" y="16" width="2" height="1" fill="#c8a35e"/><rect x="40" y="16" width="2" height="1" fill="#3a444c"/><rect x="42" y="16" width="4" height="1" fill="#20272d"/><rect x="46" y="16" width="1" height="1" fill="#1b130c" opacity="0.55"/><rect x="1" y="17" width="1" height="1" fill="#1b130c" opacity="0.55"/><rect x="2" y="17" width="2" height="1" fill="#6f7d87"/><rect x="4" y="17" width="2" height="1" fill="#3a444c"/><rect x="6" y="17" width="2" height="1" fill="#1b130c"/><rect x="8" y="17" width="6" height="1" fill="#3a444c"/><rect x="14" y="17" width="2" height="1" fill="#c8a35e"/><rect x="16" y="17" width="2" height="1" fill="#ecd59a"/><rect x="18" y="17" width="2" height="1" fill="#c8a35e"/><rect x="20" y="17" width="2" height="1" fill="#86652a"/><rect x="22" y="17" width="2" height="1" fill="#ecd59a"/><rect x="24" y="17" width="2" height="1" fill="#c8a35e"/><rect x="26" y="17" width="6" height="1" fill="#3a444c"/><rect x="32" y="17" width="4" height="1" fill="#1b130c"/><rect x="36" y="17" width="2" height="1" fill="#3a444c"/><rect x="38" y="17" width="2" height="1" fill="#c8a35e"/><rect x="40" y="17" width="2" height="1" fill="#3a444c"/><rect x="42" y="17" width="4" height="1" fill="#20272d"/><rect x="46" y="17" width="1" height="1" fill="#1b130c" opacity="0.55"/><rect x="1" y="18" width="1" height="1" fill="#1b130c" opacity="0.55"/><rect x="2" y="18" width="2" height="1" fill="#6f7d87"/><rect x="4" y="18" width="2" height="1" fill="#3a444c"/><rect x="6" y="18" width="2" height="1" fill="#1b130c"/><rect x="8" y="18" width="6" height="1" fill="#3a444c"/><rect x="14" y="18" width="2" height="1" fill="#c8a35e"/><rect x="16" y="18" width="2" height="1" fill="#ecd59a"/><rect x="18" y="18" width="4" height="1" fill="#c8a35e"/><rect x="22" y="18" width="2" height="1" fill="#ecd59a"/><rect x="24" y="18" width="2" height="1" fill="#c8a35e"/><rect x="26" y="18" width="6" height="1" fill="#3a444c"/><rect x="32" y="18" width="4" height="1" fill="#1b130c"/><rect x="36" y="18" width="2" height="1" fill="#3a444c"/><rect x="38" y="18" width="2" height="1" fill="#c8a35e"/><rect x="40" y="18" width="2" height="1" fill="#3a444c"/><rect x="42" y="18" width="4" height="1" fill="#20272d"/><rect x="46" y="18" width="1" height="1" fill="#1b130c" opacity="0.55"/><rect x="1" y="19" width="1" height="1" fill="#1b130c" opacity="0.55"/><rect x="2" y="19" width="2" height="1" fill="#6f7d87"/><rect x="4" y="19" width="2" height="1" fill="#3a444c"/><rect x="6" y="19" width="2" height="1" fill="#1b130c"/><rect x="8" y="19" width="6" height="1" fill="#3a444c"/><rect x="14" y="19" width="2" height="1" fill="#c8a35e"/><rect x="16" y="19" width="2" height="1" fill="#ecd59a"/><rect x="18" y="19" width="4" height="1" fill="#c8a35e"/><rect x="22" y="19" width="2" height="1" fill="#ecd59a"/><rect x="24" y="19" width="2" height="1" fill="#c8a35e"/><rect x="26" y="19" width="6" height="1" fill="#3a444c"/><rect x="32" y="19" width="4" height="1" fill="#1b130c"/><rect x="36" y="19" width="2" height="1" fill="#3a444c"/><rect x="38" y="19" width="2" height="1" fill="#c8a35e"/><rect x="40" y="19" width="2" height="1" fill="#3a444c"/><rect x="42" y="19" width="4" height="1" fill="#20272d"/><rect x="46" y="19" width="1" height="1" fill="#1b130c" opacity="0.55"/><rect x="1" y="20" width="1" height="1" fill="#1b130c" opacity="0.55"/><rect x="2" y="20" width="2" height="1" fill="#6f7d87"/><rect x="4" y="20" width="2" height="1" fill="#3a444c"/><rect x="6" y="20" width="2" height="1" fill="#1b130c"/><rect x="8" y="20" width="8" height="1" fill="#3a444c"/><rect x="16" y="20" width="2" height="1" fill="#c8a35e"/><rect x="18" y="20" width="4" height="1" fill="#ecd59a"/><rect x="22" y="20" width="2" height="1" fill="#c8a35e"/><rect x="24" y="20" width="8" height="1" fill="#3a444c"/><rect x="32" y="20" width="4" height="1" fill="#1b130c"/><rect x="36" y="20" width="2" height="1" fill="#3a444c"/><rect x="38" y="20" width="2" height="1" fill="#ecd59a"/><rect x="40" y="20" width="2" height="1" fill="#3a444c"/><rect x="42" y="20" width="4" height="1" fill="#20272d"/><rect x="46" y="20" width="1" height="1" fill="#1b130c" opacity="0.55"/><rect x="1" y="21" width="1" height="1" fill="#1b130c" opacity="0.55"/><rect x="2" y="21" width="2" height="1" fill="#6f7d87"/><rect x="4" y="21" width="2" height="1" fill="#3a444c"/><rect x="6" y="21" width="2" height="1" fill="#1b130c"/><rect x="8" y="21" width="8" height="1" fill="#3a444c"/><rect x="16" y="21" width="2" height="1" fill="#c8a35e"/><rect x="18" y="21" width="4" height="1" fill="#ecd59a"/><rect x="22" y="21" width="2" height="1" fill="#c8a35e"/><rect x="24" y="21" width="8" height="1" fill="#3a444c"/><rect x="32" y="21" width="4" height="1" fill="#1b130c"/><rect x="36" y="21" width="2" height="1" fill="#3a444c"/><rect x="38" y="21" width="2" height="1" fill="#ecd59a"/><rect x="40" y="21" width="2" height="1" fill="#3a444c"/><rect x="42" y="21" width="4" height="1" fill="#20272d"/><rect x="46" y="21" width="1" height="1" fill="#1b130c" opacity="0.55"/><rect x="1" y="22" width="1" height="1" fill="#1b130c" opacity="0.55"/><rect x="2" y="22" width="2" height="1" fill="#6f7d87"/><rect x="4" y="22" width="2" height="1" fill="#3a444c"/><rect x="6" y="22" width="2" height="1" fill="#1b130c"/><rect x="8" y="22" width="8" height="1" fill="#3a444c"/><rect x="16" y="22" width="8" height="1" fill="#c8a35e"/><rect x="24" y="22" width="10" height="1" fill="#3a444c"/><rect x="34" y="22" width="2" height="1" fill="#1b130c"/><rect x="36" y="22" width="6" height="1" fill="#3a444c"/><rect x="42" y="22" width="4" height="1" fill="#20272d"/><rect x="46" y="22" width="1" height="1" fill="#1b130c" opacity="0.55"/><rect x="1" y="23" width="1" height="1" fill="#1b130c" opacity="0.55"/><rect x="2" y="23" width="2" height="1" fill="#6f7d87"/><rect x="4" y="23" width="2" height="1" fill="#3a444c"/><rect x="6" y="23" width="2" height="1" fill="#1b130c"/><rect x="8" y="23" width="8" height="1" fill="#3a444c"/><rect x="16" y="23" width="8" height="1" fill="#c8a35e"/><rect x="24" y="23" width="10" height="1" fill="#3a444c"/><rect x="34" y="23" width="2" height="1" fill="#1b130c"/><rect x="36" y="23" width="6" height="1" fill="#3a444c"/><rect x="42" y="23" width="4" height="1" fill="#20272d"/><rect x="46" y="23" width="1" height="1" fill="#1b130c" opacity="0.55"/><rect x="1" y="24" width="1" height="1" fill="#1b130c" opacity="0.55"/><rect x="2" y="24" width="2" height="1" fill="#6f7d87"/><rect x="4" y="24" width="2" height="1" fill="#3a444c"/><rect x="6" y="24" width="2" height="1" fill="#1b130c"/><rect x="8" y="24" width="28" height="1" fill="#3a444c"/><rect x="36" y="24" width="2" height="1" fill="#1b130c"/><rect x="38" y="24" width="4" height="1" fill="#3a444c"/><rect x="42" y="24" width="4" height="1" fill="#20272d"/><rect x="46" y="24" width="1" height="1" fill="#1b130c" opacity="0.55"/><rect x="1" y="25" width="1" height="1" fill="#1b130c" opacity="0.55"/><rect x="2" y="25" width="2" height="1" fill="#6f7d87"/><rect x="4" y="25" width="2" height="1" fill="#3a444c"/><rect x="6" y="25" width="2" height="1" fill="#1b130c"/><rect x="8" y="25" width="28" height="1" fill="#3a444c"/><rect x="36" y="25" width="2" height="1" fill="#1b130c"/><rect x="38" y="25" width="4" height="1" fill="#3a444c"/><rect x="42" y="25" width="4" height="1" fill="#20272d"/><rect x="46" y="25" width="1" height="1" fill="#1b130c" opacity="0.55"/><rect x="1" y="26" width="1" height="1" fill="#1b130c" opacity="0.55"/><rect x="2" y="26" width="2" height="1" fill="#6f7d87"/><rect x="4" y="26" width="2" height="1" fill="#3a444c"/><rect x="6" y="26" width="34" height="1" fill="#1b130c"/><rect x="40" y="26" width="2" height="1" fill="#3a444c"/><rect x="42" y="26" width="4" height="1" fill="#20272d"/><rect x="46" y="26" width="1" height="1" fill="#1b130c" opacity="0.55"/><rect x="1" y="27" width="1" height="1" fill="#1b130c" opacity="0.55"/><rect x="2" y="27" width="2" height="1" fill="#6f7d87"/><rect x="4" y="27" width="2" height="1" fill="#3a444c"/><rect x="6" y="27" width="34" height="1" fill="#1b130c"/><rect x="40" y="27" width="2" height="1" fill="#3a444c"/><rect x="42" y="27" width="4" height="1" fill="#20272d"/><rect x="46" y="27" width="1" height="1" fill="#1b130c" opacity="0.55"/><rect x="1" y="28" width="1" height="1" fill="#1b130c" opacity="0.55"/><rect x="2" y="28" width="2" height="1" fill="#6f7d87"/><rect x="4" y="28" width="40" height="1" fill="#3a444c"/><rect x="44" y="28" width="2" height="1" fill="#20272d"/><rect x="46" y="28" width="1" height="1" fill="#1b130c" opacity="0.55"/><rect x="1" y="29" width="1" height="1" fill="#1b130c" opacity="0.55"/><rect x="2" y="29" width="2" height="1" fill="#6f7d87"/><rect x="4" y="29" width="40" height="1" fill="#3a444c"/><rect x="44" y="29" width="2" height="1" fill="#20272d"/><rect x="46" y="29" width="1" height="1" fill="#1b130c" opacity="0.55"/><rect x="1" y="30" width="1" height="1" fill="#1b130c" opacity="0.55"/><rect x="2" y="30" width="44" height="1" fill="#20272d"/><rect x="46" y="30" width="1" height="1" fill="#1b130c" opacity="0.55"/><rect x="1" y="31" width="1" height="1" fill="#1b130c" opacity="0.55"/><rect x="2" y="31" width="44" height="1" fill="#20272d"/><rect x="46" y="31" width="1" height="1" fill="#1b130c" opacity="0.55"/><rect x="1" y="32" width="46" height="1" fill="#1b130c"/><rect x="1" y="33" width="46" height="1" fill="#1b130c"/><rect x="3" y="34" width="1" height="1" fill="#1b130c"/><rect x="4" y="34" width="2" height="1" fill="#20272d"/><rect x="6" y="34" width="1" height="1" fill="#1b130c"/><rect x="41" y="34" width="1" height="1" fill="#1b130c"/><rect x="42" y="34" width="2" height="1" fill="#20272d"/><rect x="44" y="34" width="1" height="1" fill="#1b130c"/><rect x="3" y="35" width="1" height="1" fill="#1b130c"/><rect x="4" y="35" width="2" height="1" fill="#20272d"/><rect x="6" y="35" width="1" height="1" fill="#1b130c"/><rect x="41" y="35" width="1" height="1" fill="#1b130c"/><rect x="42" y="35" width="2" height="1" fill="#20272d"/><rect x="44" y="35" width="1" height="1" fill="#1b130c"/><rect x="3" y="36" width="4" height="1" fill="#1b130c"/><rect x="41" y="36" width="4" height="1" fill="#1b130c"/><rect x="3" y="37" width="4" height="1" fill="#1b130c"/><rect x="41" y="37" width="4" height="1" fill="#1b130c"/></svg>